<svg width="34" height="34" viewBox="0 0 34 34" fill="none" xmlns="http://www.w3.org/2000/svg">
<path d="M29.8419 7.15552V19.7671C29.8419 19.9901 29.661 20.171 29.438 20.171C29.2151 20.171 29.0342 19.9901 29.0342 19.7671V7.15552C29.0342 6.75482 28.8952 6.37033 28.6464 6.06334L17.1463 14.2514C16.5485 14.6779 15.8441 14.8911 15.1397 14.8911C14.4353 14.8911 13.7341 14.6779 13.1331 14.2514L1.63633 6.06334C1.38751 6.37352 1.24533 6.75482 1.24533 7.15552V22.0063C1.24533 22.9692 2.03052 23.7512 2.99022 23.7512H21.6475C21.8704 23.7512 22.0513 23.9322 22.0513 24.1551C22.0513 24.378 21.8704 24.559 21.6475 24.559H2.99022C1.5846 24.559 0.4375 23.4152 0.4375 22.0063V7.15552C0.4375 5.85655 1.42948 4.74823 2.7317 4.61575C2.95144 4.5931 7.80474 4.60605 27.2893 4.59961C28.6948 4.59954 29.8419 5.75315 29.8419 7.15552Z" fill="#4B4036"/>
<path d="M33.5565 24.1544C33.5565 24.5647 33.3239 24.9202 32.949 25.085L23.2843 29.3115C23.1518 29.3697 23.0129 29.3988 22.8739 29.3988C22.6154 29.3988 22.3601 29.2954 22.1663 29.1047C21.869 28.8107 21.7818 28.3745 21.9434 27.99L23.5267 24.2352C23.5493 24.1835 23.5493 24.1253 23.5267 24.0769L21.9434 20.3222C21.7818 19.9377 21.8691 19.4982 22.1663 19.2074C22.4636 18.9134 22.8998 18.8325 23.2843 19.0006L29.6079 21.7666L32.949 23.2271C33.3239 23.3919 33.5565 23.7473 33.5565 24.1544Z" fill="#4B4036"/>
</svg>
