<svg width="99" height="29" viewBox="0 0 99 29" fill="none" xmlns="http://www.w3.org/2000/svg">
<g clip-path="url(#clip0_2053_1379)">
<path fill-rule="evenodd" clip-rule="evenodd" d="M94.6469 25.2524C96.5947 25.2524 97.9738 24.8965 99.0011 24.1307V20.656C97.9455 21.3948 96.6747 21.8604 94.8903 21.8604C91.8886 21.8604 90.6428 19.5074 90.6428 15.7864C90.6428 11.8749 92.1571 9.87613 94.917 9.87613C96.5396 9.87613 98.1356 10.4513 98.9744 10.9978V7.38651C98.0822 6.89399 96.5396 6.53809 94.4301 6.53809C89.0469 6.53809 86.2619 10.4496 86.2619 15.9214C86.2886 21.9127 89.0202 25.2507 94.6469 25.2507V25.2524ZM68.328 23.6652V20.1905C67.0289 21.0929 64.811 21.8874 62.7831 21.8874C59.6996 21.8874 58.5356 20.4098 58.3471 17.4006H68.5181V15.1573C68.5181 8.89277 65.7865 6.53977 61.5941 6.53977C56.4544 6.53977 54.0196 10.507 54.0196 15.9517C54.0196 22.2163 57.0764 25.2541 62.4312 25.2541C65.1095 25.2541 67.084 24.5153 68.328 23.6669V23.6652ZM29.7286 6.867V13.98H24.102V6.867H19.8828V24.8965H24.102V17.372H29.7286V24.8965H33.9478V6.867H29.7286ZM52.964 21.5045H51.0979V6.867H38.8173V8.39855C38.8173 12.8026 38.5471 18.4937 37.0596 21.5028H35.7071V28.9986H39.6028V24.8948H49.0433V28.9986H52.939V21.5028H52.9656L52.964 21.5045ZM81.7709 24.8965L75.5489 16.0327V24.8965H71.3298V6.867H75.5489V15.1843L81.4991 6.867H85.7466L79.7964 15.1843L86.5588 24.8965H81.7709ZM61.484 9.87613C63.5669 9.87613 64.2156 11.627 64.2156 13.8973V14.2532H58.3455C58.4539 11.3807 59.4811 9.87613 61.484 9.87613ZM46.8771 21.5045H40.9269C42.0892 18.7956 42.4144 13.872 42.4144 10.7532V10.2067H46.8771V21.5062V21.5045Z" fill="#AEA59D"/>
<path fill-rule="evenodd" clip-rule="evenodd" d="M16.3646 24.8962H12.0638V3.36503H10.1426C6.62557 3.36503 4.78615 5.14285 4.78615 7.79777C4.78615 10.8069 6.0569 12.2018 8.68178 13.9813L10.8464 15.4589L4.62439 24.8979H0L5.59997 16.4709C2.37974 14.1449 0.568668 11.8729 0.568668 8.04403C0.568668 3.25539 3.86728 0 10.116 0H16.338V24.8962H16.3646Z" fill="#AEA59D"/>
</g>
<defs>
<clipPath id="clip0_2053_1379">
<rect width="99" height="29" fill="white"/>
</clipPath>
</defs>
</svg>
