<svg width="23" height="23" viewBox="0 0 23 23" fill="none" xmlns="http://www.w3.org/2000/svg">
<path d="M0.600778 0.601562C0.905511 0.296922 1.31876 0.125784 1.74965 0.125784C2.18054 0.125784 2.5938 0.296922 2.89853 0.601562L11.4997 9.20269L20.1008 0.601562C20.2507 0.446358 20.43 0.322562 20.6282 0.237397C20.8265 0.152233 21.0397 0.107405 21.2555 0.10553C21.4713 0.103655 21.6852 0.14477 21.885 0.226477C22.0847 0.308183 22.2661 0.428844 22.4187 0.58142C22.5712 0.733996 22.6919 0.91543 22.7736 1.11514C22.8553 1.31484 22.8964 1.52882 22.8946 1.74459C22.8927 1.96036 22.8479 2.17359 22.7627 2.37184C22.6775 2.5701 22.5537 2.74941 22.3985 2.89931L13.7974 11.5004L22.3985 20.1016C22.6945 20.408 22.8583 20.8185 22.8546 21.2446C22.8509 21.6707 22.68 22.0782 22.3787 22.3795C22.0774 22.6808 21.6699 22.8517 21.2438 22.8554C20.8177 22.8591 20.4073 22.6953 20.1008 22.3993L11.4997 13.7982L2.89853 22.3993C2.59205 22.6953 2.18157 22.8591 1.7555 22.8554C1.32943 22.8517 0.921861 22.6808 0.620573 22.3795C0.319285 22.0782 0.148385 21.6707 0.144682 21.2446C0.14098 20.8185 0.304771 20.408 0.600778 20.1016L9.2019 11.5004L0.600778 2.89931C0.296138 2.59458 0.125 2.18133 0.125 1.75044C0.125 1.31955 0.296138 0.906295 0.600778 0.601562Z" fill="#4B4036"/>
</svg>
