<svg width="17" height="17" viewBox="0 0 17 17" fill="none" xmlns="http://www.w3.org/2000/svg">
<mask id="path-1-inside-1_22_7574" fill="white">
<path fill-rule="evenodd" clip-rule="evenodd" d="M9 0H8V8H0V9H8V17H9V9H17V8H9V0Z"/>
</mask>
<path fill-rule="evenodd" clip-rule="evenodd" d="M9 0H8V8H0V9H8V17H9V9H17V8H9V0Z" fill="#DBCFC3"/>
<path d="M8 0V-1H7V0H8ZM9 0H10V-1H9V0ZM8 8V9H9V8H8ZM0 8V7H-1V8H0ZM0 9H-1V10H0V9ZM8 9H9V8H8V9ZM8 17H7V18H8V17ZM9 17V18H10V17H9ZM9 9V8H8V9H9ZM17 9V10H18V9H17ZM17 8H18V7H17V8ZM9 8H8V9H9V8ZM8 1H9V-1H8V1ZM9 8V0H7V8H9ZM0 9H8V7H0V9ZM1 9V8H-1V9H1ZM8 8H0V10H8V8ZM9 17V9H7V17H9ZM9 16H8V18H9V16ZM8 9V17H10V9H8ZM17 8H9V10H17V8ZM16 8V9H18V8H16ZM9 9H17V7H9V9ZM8 0V8H10V0H8Z" fill="#4B4036" mask="url(#path-1-inside-1_22_7574)"/>
</svg>
