<svg width="69" height="29" viewBox="0 0 69 29" fill="none" xmlns="http://www.w3.org/2000/svg">
<path d="M29.4429 14.5C29.4429 12.7168 29.1006 11.0155 28.5018 9.43654C28.3422 14.6303 22.9826 18.6529 19.8357 21.315H27.7133C28.8149 19.2817 29.4429 16.9639 29.4429 14.5ZM23.7479 3.06274C21.2547 1.14919 18.1275 -1.39083e-07 14.7206 -1.39083e-07C6.59073 -1.39083e-07 0 6.4918 0 14.5C0 22.5082 6.59073 29 14.7206 29C18.4449 29 21.8355 27.6289 24.4265 25.3834H13.7683L13.7365 22.2995C20.1583 16.801 24.0954 13.0822 24.0954 9.49025C24.0954 8.15526 23.5789 6.47067 21.2564 6.47067C19.417 6.47067 17.6419 7.52035 17.9636 11.9057H14.2213C13.2844 6.82115 16.0925 2.7827 21.4495 2.7827C22.2782 2.7827 23.0478 2.88133 23.7479 3.06274Z" fill="#AEA59D"/>
<path d="M43.0983 10.0227H46.5807C46.6991 7.41344 45.8069 3.27989 40.0629 3.27989C35.8367 3.27989 32.7695 5.772 32.7695 10.9605C32.7695 11.6641 32.7996 15.2992 32.7996 17.5571C32.7996 23.185 36.759 24.417 40.0921 24.417C42.0868 24.417 44.9729 23.9767 46.313 22.5404V13.5697H39.7652V16.8244H42.6822V20.781C40.479 21.5136 36.4613 21.8078 36.4613 16.8244V10.9605C36.4613 7.47244 38.0982 6.26954 39.9128 6.26954C41.7891 6.26954 43.0983 7.20826 43.0983 10.0227ZM68.9988 18.7301C69.1489 10.6972 59.8034 13.3646 59.8926 8.87876C59.9218 7.29632 60.9642 6.26954 62.6603 6.26954C64.4749 6.26954 65.5473 7.32538 65.5164 10.0817H68.9396C69.0297 7.58868 68.4351 3.33801 62.7804 3.33801C59.268 3.33801 56.3802 5.03934 56.321 8.82064C56.1717 16.5303 65.5765 14.01 65.4272 18.6702C65.368 20.5758 63.9695 21.4256 62.3918 21.4256C60.5472 21.4256 59.0587 20.3706 59.3564 17.2049H55.9031C55.5171 21.3965 57.3925 24.3879 62.3626 24.3879C66.5588 24.3879 68.9396 22.1001 68.9988 18.7301ZM53.277 24.1229H49.7646V3.60219H53.277V24.1229ZM53.277 24.1229H49.7646V3.60219H53.277V24.1229Z" fill="#AEA59D"/>
</svg>
