<svg width="20" height="20" viewBox="0 0 20 20" fill="none" xmlns="http://www.w3.org/2000/svg">
<path fill-rule="evenodd" clip-rule="evenodd" d="M14.1051 0.000755593C12.9407 0.0218797 11.7844 0.485901 10.9146 1.38786L10.92 1.38229L3.07212 9.23021C0.611337 11.691 0.61139 15.6938 3.0722 18.1546C5.53302 20.6152 9.53569 20.6151 11.9964 18.1543L18.6497 11.501C18.8175 11.3332 18.8175 11.0611 18.6497 10.8933C18.4819 10.7255 18.2098 10.7255 18.042 10.8933L11.3887 17.5466C9.25641 19.679 5.81229 19.6791 3.67988 17.5469C1.54749 15.4145 1.54743 11.9703 3.6798 9.8379L11.5277 1.98997C11.5296 1.98813 11.5314 1.98628 11.5332 1.9844C12.9494 0.515824 15.2742 0.472844 16.744 1.88705C18.214 3.35978 18.2133 5.73222 16.7416 7.20391L15.302 8.64351C15.2875 7.95088 15.0188 7.26259 14.4915 6.73531L14.4912 6.73508C13.9489 6.19284 13.2366 5.9217 12.5242 5.92171C11.8118 5.92172 11.0994 6.19285 10.5572 6.73508L7.23029 10.062C6.14582 11.1464 6.14582 12.9115 7.23029 13.996L7.2306 13.9963C8.31507 15.0808 10.0802 15.0808 11.1646 13.9963C13.2544 11.9065 15.5167 9.64419 17.3493 7.8116C19.1503 6.01065 19.1503 3.07765 17.3493 1.2767C17.3475 1.27485 17.3456 1.27302 17.3437 1.27121C16.4418 0.401391 15.2694 -0.0203685 14.1051 0.000755593ZM11.6924 9.10409C11.8064 9.10407 11.9157 9.14932 11.9963 9.2299C12.1641 9.39769 12.1642 9.66976 11.9964 9.83758L10.3332 11.5011C10.1655 11.6689 9.89339 11.669 9.72556 11.5012C9.55773 11.3334 9.5577 11.0613 9.72548 10.8935L11.3886 9.22998C11.4692 9.14939 11.5785 9.10411 11.6924 9.10409Z" fill="#DBCFC3"/>
</svg>
