<svg width="86" height="19" viewBox="0 0 86 19" fill="none" xmlns="http://www.w3.org/2000/svg">
<path d="M30.3928 14.0952H27.0068L26.1788 16.2744H24.6875L28.0021 8.13903H29.4091L32.8006 16.2744H31.2391L30.3928 14.0952ZM27.4334 12.9917H29.9577L29.0528 10.6615C28.9289 10.341 28.8063 9.98543 28.6855 9.59552C28.5756 9.93938 28.4579 10.2912 28.3297 10.6504L27.4334 12.9917ZM33.4755 11.6986C33.4755 11.2503 33.4602 10.7554 33.4297 10.2157H34.7831C34.8337 10.4711 34.8685 10.729 34.8887 10.9882C35.4488 10.3993 36.0907 10.1052 36.815 10.1052C37.6986 10.0917 38.5028 10.5946 38.8488 11.3762C39.0691 11.8177 39.1795 12.3765 39.1795 13.0525C39.1968 13.6782 39.0674 14.2992 38.8018 14.8652C38.5731 15.3433 38.2059 15.7406 37.7486 16.0048C37.2739 16.2689 36.7326 16.4039 36.1841 16.3935C35.7551 16.3925 35.329 16.322 34.9222 16.1847V18.6826L33.4797 18.8005L33.4755 11.6986ZM37.2672 14.7946C37.5601 14.4151 37.7077 13.86 37.7077 13.1293C37.7077 12.452 37.5857 11.9614 37.3428 11.6568C37.2283 11.5086 37.0805 11.3898 36.9115 11.3102C36.7426 11.2306 36.5573 11.1924 36.3708 11.1988C36.1002 11.1964 35.8333 11.2618 35.594 11.3891C35.3439 11.5267 35.1156 11.6992 34.9173 11.9006V15.1452C35.0778 15.2176 35.2468 15.2717 35.4201 15.3048C35.6056 15.3441 35.7954 15.3638 35.9852 15.3638C36.5465 15.3638 36.9743 15.174 37.2672 14.7946ZM40.0997 11.6986C40.0997 11.2503 40.0838 10.7554 40.0527 10.2157H41.4073C41.458 10.4711 41.4927 10.729 41.5117 10.9882C42.073 10.3993 42.715 10.1052 43.438 10.1052C44.3222 10.091 45.127 10.5939 45.473 11.3762C45.6921 11.8177 45.8019 12.3765 45.8025 13.0525C45.8202 13.6781 45.6912 14.2991 45.426 14.8652C45.1969 15.3434 44.8293 15.7407 44.3716 16.0048C43.8975 16.2695 43.3563 16.4039 42.8083 16.3935C42.3791 16.3926 41.9528 16.3221 41.5458 16.1847V18.6826L40.0997 18.8054V11.6986ZM43.8914 14.7946C44.1843 14.4151 44.3313 13.86 44.3313 13.1293C44.3313 12.452 44.2099 11.9614 43.9671 11.6568C43.8525 11.5086 43.7047 11.3898 43.5358 11.3102C43.3668 11.2306 43.1815 11.1924 42.995 11.1988C42.7244 11.1963 42.4575 11.2617 42.2183 11.3891C41.969 11.5253 41.741 11.6976 41.5416 11.9006V15.1452C41.7014 15.2176 41.8698 15.2717 42.0431 15.3048C42.2292 15.3441 42.419 15.3638 42.6094 15.3638C43.1726 15.3638 43.6003 15.174 43.8932 14.7946H43.8914ZM48.5246 15.8888C47.9145 15.5704 47.4139 15.0744 47.0882 14.4654C46.7544 13.8477 46.5872 13.1182 46.5872 12.2764C46.5872 11.3633 46.7782 10.5878 47.1608 9.9492C47.5325 9.32511 48.08 8.82611 48.7339 8.51543C49.4323 8.18775 50.1954 8.02358 50.9659 8.03526C51.8733 8.03175 52.7704 8.22923 53.5934 8.61368L53.2249 9.68026C52.5396 9.34779 51.7912 9.16808 51.0306 9.15341C50.4938 9.14103 49.9625 9.26544 49.4862 9.51508C49.0433 9.75666 48.6834 10.1274 48.4538 10.5786C48.1958 11.1053 48.0697 11.6876 48.0865 12.2746C48.0767 12.802 48.1719 13.3264 48.369 13.8189C48.5459 14.2548 48.8583 14.6269 49.2623 14.886C49.6687 15.147 50.1812 15.2784 50.8 15.279C51.0816 15.2791 51.3628 15.2565 51.6408 15.2115C51.9093 15.1697 52.1729 15.104 52.4292 15.015V13.3657H50.4784V12.2832H53.8344V15.7033C53.3475 15.9219 52.838 16.0896 52.3145 16.2038C51.794 16.318 51.2625 16.3757 50.7286 16.3769C49.9653 16.3982 49.2085 16.2306 48.5246 15.8888ZM59.029 16.2744C58.9747 16.0096 58.9416 15.7408 58.9301 15.4706C58.6885 15.7402 58.3938 15.9606 58.0631 16.1196C57.6872 16.3015 57.2743 16.3926 56.8573 16.3855C56.5171 16.3898 56.1799 16.3203 55.8688 16.1817C55.5769 16.0504 55.33 15.8353 55.1592 15.5633C54.9771 15.2602 54.8865 14.9103 54.8986 14.5563C54.8893 14.2859 54.9444 14.0171 55.0592 13.7724C55.1741 13.5277 55.3454 13.3141 55.5588 13.1496C55.9982 12.7996 56.7316 12.6252 57.7592 12.6239C58.143 12.6239 58.5262 12.6503 58.9063 12.7038V12.5859C58.9063 12.0504 58.788 11.6728 58.5506 11.4536C58.3132 11.2344 57.9727 11.1239 57.5285 11.122C57.1957 11.1255 56.8644 11.169 56.5419 11.2516C56.2264 11.3265 55.9195 11.4296 55.6241 11.5604L55.3947 10.5497C55.7231 10.4152 56.0632 10.3118 56.4107 10.2409C56.8479 10.1454 57.2941 10.0985 57.7415 10.1009C58.2152 10.0883 58.6868 10.1692 59.1297 10.3391C59.5177 10.5043 59.8338 10.7935 60.0236 11.1589C60.2378 11.5457 60.3446 12.0676 60.3446 12.7222V15.131C60.3446 15.3816 60.3598 15.761 60.3922 16.2707L59.029 16.2744ZM58.1686 15.1519C58.4449 15.0301 58.6947 14.8548 58.9039 14.6361V13.5106C58.5843 13.4742 58.2632 13.4537 57.9416 13.4492C57.3461 13.4492 56.9348 13.5413 56.7072 13.7267C56.5953 13.8156 56.5058 13.9297 56.446 14.0599C56.3862 14.19 56.3578 14.3326 56.3631 14.4759C56.3631 14.7767 56.4454 14.9972 56.6108 15.1384C56.7981 15.2919 57.0392 15.3705 57.2851 15.3589C57.5911 15.355 57.8926 15.2848 58.1686 15.1519ZM61.6009 14.821V7.66131L63.0373 7.55078V14.5741C63.0373 14.832 63.0831 15.0162 63.174 15.1255C63.2305 15.1827 63.2989 15.2266 63.3742 15.2542C63.4495 15.2818 63.5299 15.2923 63.6097 15.2852C63.7378 15.279 63.8654 15.2588 63.988 15.2238L64.1589 16.2167C63.9968 16.275 63.8294 16.3172 63.6591 16.3425C63.4748 16.3732 63.2887 16.3892 63.1014 16.3898C62.1013 16.3867 61.6009 15.8642 61.6009 14.821ZM65.1919 14.821V7.66131L66.6271 7.55078V14.5741C66.6271 14.832 66.6728 15.0162 66.765 15.1255C66.8212 15.1827 66.8893 15.2267 66.9644 15.2543C67.0396 15.2819 67.1198 15.2924 67.1994 15.2852C67.3282 15.279 67.4557 15.2588 67.5796 15.2238L67.748 16.2167C67.5862 16.2752 67.419 16.3173 67.2489 16.3425C67.0646 16.3732 66.8785 16.3892 66.6911 16.3898C65.6904 16.3867 65.1913 15.8642 65.1919 14.821ZM73.726 13.4222H69.6042C69.6713 14.6908 70.2998 15.3257 71.4903 15.3257C71.7954 15.3239 72.1005 15.2889 72.3976 15.2213C72.7027 15.1538 72.9999 15.0604 73.2885 14.9438L73.6034 15.8924C72.8571 16.2301 72.0461 16.3984 71.2279 16.3855C70.5585 16.3855 69.9941 16.2639 69.534 16.0214C69.0886 15.7895 68.7273 15.4221 68.5016 14.9714C68.2575 14.455 68.1395 13.8875 68.1574 13.316C68.1413 12.7184 68.2673 12.1256 68.5248 11.5868C68.7511 11.1259 69.1075 10.7423 69.5493 10.484C70.0112 10.2231 70.5341 10.0913 71.0638 10.1021C71.6587 10.1021 72.156 10.236 72.5551 10.5037C72.9484 10.7648 73.2567 11.1366 73.4417 11.5727C73.6388 12.0437 73.7352 12.5478 73.726 13.0556V13.4222ZM72.3189 12.5392C72.2921 12.056 72.1652 11.6943 71.9406 11.4524C71.8237 11.331 71.6825 11.2359 71.5265 11.1735C71.3704 11.111 71.2029 11.0826 71.0351 11.0901C70.8654 11.0846 70.6963 11.1142 70.5385 11.1772C70.3806 11.2401 70.2373 11.3351 70.1174 11.456C69.8733 11.6986 69.7146 12.0596 69.6414 12.5392H72.3189ZM74.8878 11.7373C74.8878 11.4039 74.872 10.8967 74.8414 10.2157H76.19C76.2138 10.3846 76.2351 10.5853 76.2571 10.8193C76.2791 11.0526 76.2925 11.2442 76.3004 11.3897C76.4456 11.1533 76.6104 10.9292 76.7941 10.7186C76.9527 10.5393 77.1443 10.3901 77.3597 10.2777C77.5867 10.1604 77.8411 10.1015 78.098 10.1064C78.2921 10.1027 78.4849 10.1248 78.6716 10.1739L78.491 11.375C78.339 11.3319 78.1815 11.3112 78.0236 11.3136C77.7097 11.3064 77.4007 11.3932 77.1358 11.5629C76.8224 11.7903 76.5484 12.0681 76.3248 12.3851V16.2762H74.8872V11.7373H74.8878ZM79.535 18.752C79.3595 18.7245 79.1862 18.6843 79.0164 18.6317L79.2775 17.6216C79.3752 17.6461 79.4978 17.6719 79.6461 17.6965C79.7846 17.7204 79.9249 17.7327 80.0659 17.7333C80.7035 17.7333 81.1825 17.3391 81.5023 16.5489L81.595 16.3278L79.272 10.22H80.8195L81.9862 13.634C82.1387 14.0731 82.2614 14.5213 82.3547 14.9757C82.4633 14.5336 82.5921 14.0964 82.7404 13.6617L83.9241 10.2157H85.3764L83.0601 16.3524C82.8853 16.8488 82.6478 17.3205 82.3535 17.756C82.1277 18.087 81.8196 18.359 81.4577 18.5469C81.0674 18.7287 80.6405 18.8169 80.2105 18.8048C79.9843 18.8059 79.7584 18.7882 79.535 18.752Z" fill="#4B4036"/>
<path fill-rule="evenodd" clip-rule="evenodd" d="M13.981 0.191406H5.83553C1.99926 0.191406 0.597656 1.54044 0.597656 5.22895V13.0628C0.597656 16.7513 1.99926 18.101 5.83553 18.101H13.9816C17.8166 18.101 19.2219 16.7513 19.2219 13.0628V5.22895C19.2182 1.54044 17.8166 0.191406 13.981 0.191406Z" fill="#C8102E"/>
<path d="M25.4851 5.04842C25.1874 4.88768 24.944 4.64144 24.7858 4.34106C24.6188 4.01353 24.5355 3.64928 24.5435 3.28123C24.5349 2.89516 24.6237 2.51318 24.8017 2.17106C24.9708 1.85707 25.2297 1.60143 25.5449 1.43728C25.9001 1.25675 26.2942 1.16772 26.692 1.17816C27.0693 1.16816 27.4429 1.25435 27.7782 1.42869C28.0772 1.59202 28.3176 1.83702 28.4707 2.13237C28.6355 2.46027 28.7172 2.82193 28.7087 3.18606C28.7182 3.57615 28.6287 3.96225 28.4488 4.3079C28.28 4.62142 28.0224 4.87729 27.7086 5.0429C27.3608 5.22097 26.9703 5.31062 26.5755 5.30079C26.1966 5.31176 25.8213 5.22449 25.4851 5.04842ZM27.3523 4.55965C27.5548 4.42763 27.7129 4.24035 27.805 4.02114C27.9087 3.77307 27.9594 3.50658 27.9539 3.23886C27.96 2.97483 27.9155 2.71202 27.8233 2.46334C27.7399 2.24435 27.5922 2.0561 27.3998 1.9236C27.1762 1.78198 26.9152 1.71197 26.6511 1.72281C26.3885 1.71464 26.1294 1.78586 25.9073 1.92728C25.7039 2.06178 25.5443 2.25355 25.4485 2.47869C25.3447 2.71816 25.2947 2.97606 25.2996 3.23579C25.2941 3.49983 25.3423 3.76141 25.4399 4.00825C25.5278 4.22685 25.6809 4.41535 25.8799 4.55106C26.0998 4.68962 26.3558 4.75909 26.6151 4.75062C26.8751 4.75983 27.1326 4.6929 27.3523 4.55965ZM30.1695 1.81246H28.8765L28.94 1.23342H32.1831L32.1166 1.81246H30.8901V5.24614H30.1695V1.81246ZM36.0639 5.24553H35.2518L34.0106 3.48079H33.517V5.24614H32.7976V1.23342H33.5176V2.88825H33.8947L34.7593 1.69088C34.8594 1.5386 34.9888 1.40658 35.1407 1.30158C35.2859 1.21562 35.4544 1.17263 35.6246 1.17816C35.7729 1.1757 35.9199 1.20272 36.0572 1.25492L35.9059 1.80141C35.8331 1.77121 35.7552 1.75516 35.6765 1.75413C35.5995 1.75196 35.5238 1.77337 35.4592 1.81553C35.3895 1.86876 35.3291 1.9333 35.2805 2.00649L34.5116 3.05895L36.0639 5.24553ZM36.6149 1.23342H37.7377C38.2661 1.23342 38.6707 1.33658 38.9507 1.54413C39.2302 1.75167 39.3706 2.0507 39.3718 2.44123C39.3767 2.68623 39.3108 2.92755 39.1814 3.13877C39.0534 3.33901 38.8705 3.49767 38.6548 3.59562C38.4126 3.70553 38.1477 3.76018 37.8799 3.75527C37.6963 3.75295 37.5134 3.73425 37.3331 3.69939V5.24369H36.6125L36.6149 1.23342ZM38.4205 3.02518C38.5791 2.87781 38.6633 2.67027 38.6499 2.45781C38.6499 2.21097 38.5718 2.03167 38.4205 1.9236C38.2123 1.80136 37.9727 1.74428 37.7322 1.75965H37.3411V3.18421C37.4777 3.20755 37.6156 3.22106 37.7554 3.22597C37.9952 3.24071 38.2326 3.16886 38.4205 3.02518ZM40.7575 5.04842C40.4594 4.88808 40.2157 4.64175 40.0576 4.34106C39.8906 4.01353 39.8074 3.64928 39.8154 3.28123C39.8069 2.89532 39.8952 2.51348 40.0723 2.17106C40.2415 1.85698 40.5007 1.60133 40.8161 1.43728C41.1713 1.25685 41.5655 1.16782 41.9633 1.17816C42.3401 1.16824 42.7133 1.25442 43.0482 1.42869C43.3472 1.59141 43.5888 1.83641 43.7413 2.13237C43.9067 2.46027 43.9891 2.82132 43.9811 3.18606C43.9904 3.57621 43.9008 3.9623 43.7206 4.3079C43.5508 4.62138 43.2921 4.87685 42.9774 5.04167C42.629 5.21974 42.2391 5.30939 41.8437 5.29957C41.4663 5.30999 41.0925 5.22356 40.7575 5.04842ZM42.6229 4.55965C42.8285 4.42763 42.989 4.23974 43.0817 4.0193C43.1842 3.77 43.2331 3.50351 43.2263 3.23579C43.231 2.97216 43.1858 2.71004 43.0933 2.46334C43.0099 2.24435 42.8622 2.0561 42.6699 1.9236C42.4462 1.78143 42.1848 1.71138 41.9205 1.72281C41.6585 1.71494 41.4001 1.78615 41.1785 1.92728C40.9755 2.06221 40.816 2.25385 40.7197 2.47869C40.6159 2.71816 40.5635 2.97606 40.5671 3.23579C40.5635 3.49983 40.6123 3.76202 40.7118 4.00825C40.799 4.22685 40.9522 4.41597 41.1523 4.55106C41.3695 4.68921 41.6258 4.75921 41.8864 4.75062C42.1463 4.75983 42.4026 4.69228 42.6229 4.55965ZM47.649 5.24614V3.0393C47.649 2.76176 47.6594 2.44369 47.6795 2.08632L45.5872 5.24553H44.7836V1.23281H45.4523V3.52439C45.4523 3.77369 45.4444 4.04632 45.4261 4.34167L47.491 1.23281H48.3184V5.24553L47.649 5.24614ZM46.0235 0.884652C45.8846 0.817135 45.7659 0.713993 45.6793 0.585617C45.6004 0.467118 45.5485 0.332489 45.5274 0.191406H46.046C46.101 0.487371 46.2828 0.632897 46.5879 0.632897C46.893 0.632897 47.0742 0.485529 47.1328 0.191406H47.6533C47.6325 0.332634 47.5801 0.467722 47.4995 0.587459C47.4141 0.714565 47.2957 0.817722 47.1554 0.886494C46.9771 0.96311 46.7853 1.00261 46.5915 1.00261C46.3977 1.00261 46.2059 0.96311 46.0277 0.886494L46.0235 0.884652ZM50.221 1.81246H48.9328L48.9957 1.23342H52.2425L52.176 1.81246H50.9416V5.24614H50.221V1.81246ZM52.8484 1.23342H55.3057L55.2428 1.80141H53.5685V2.90483H55.1415V3.43842H53.5685V4.67018H55.3264L55.2654 5.24737H52.8484V1.23342ZM60.3489 3.26342C60.4978 3.34775 60.6212 3.47128 60.7057 3.62078C60.7902 3.77027 60.8326 3.94009 60.8285 4.11202C60.8328 4.32141 60.7717 4.52772 60.654 4.70456C60.5283 4.88263 60.3513 5.02079 60.1445 5.10246C59.8889 5.20351 59.616 5.25235 59.3415 5.24614H57.9801V1.23342H59.2817C59.7234 1.23342 60.0542 1.3157 60.2757 1.48027C60.4947 1.63992 60.6186 1.89228 60.607 2.15693C60.6143 2.37369 60.5387 2.58614 60.3947 2.75378C60.2488 2.91588 60.056 3.03316 59.8406 3.09027C60.0206 3.11421 60.1933 3.17316 60.3489 3.26342ZM58.6843 2.87351H59.134C59.2713 2.87658 59.4074 2.84711 59.53 2.78755C59.6386 2.73597 59.7302 2.65553 59.7936 2.55606C59.8548 2.46084 59.8867 2.34953 59.8851 2.23614C59.8894 2.16385 59.8746 2.09171 59.8422 2.02702C59.8098 1.96232 59.7611 1.90738 59.7009 1.86772C59.5364 1.77711 59.3499 1.73497 59.1627 1.74614H58.6843V2.87351ZM59.8912 4.55965C60.034 4.42948 60.1127 4.24772 60.1085 4.0586C60.1058 3.96406 60.0829 3.87122 60.0415 3.78635C60 3.70149 59.9408 3.6266 59.8681 3.56676C59.6575 3.43745 59.4125 3.37656 59.1663 3.39237H58.6843V4.73834H59.2255C59.5227 4.73465 59.7448 4.67448 59.8912 4.55965Z" fill="#4B4036"/>
<path d="M4.28815 9.14671H4.7824V11.488H4.28815V10.5363H3.17333V11.488H2.67969V9.14671H3.17333V10.0911H4.28815V9.14671ZM7.07122 10.4872C7.07122 10.8679 6.87413 11.0705 6.51717 11.0705C6.16021 11.0705 5.96068 10.8617 5.96068 10.4706V9.14671H5.46765V10.4859C5.46765 11.1479 5.84718 11.5218 6.51107 11.5218C7.17618 11.5218 7.56487 11.1368 7.56487 10.4657V9.14241H7.07122V10.4872ZM12.7789 10.7561L12.2273 9.14671H11.8234L11.2706 10.7561L10.7299 9.14733H10.2033L11.0521 11.488H11.4609L12.015 9.9511L12.5678 11.488H12.9809L13.8272 9.14794H13.3159L12.7789 10.7561ZM14.7157 10.4804H15.6139V10.0549H14.7157V9.57469H16.0197V9.14855H14.2281V11.4868H16.0636V11.06H14.7151L14.7157 10.4804ZM16.6555 11.4843H17.143V9.14671H16.6555V11.4843ZM8.54117 10.9993L8.32089 11.4868H7.81566L8.88837 9.14671H9.32466L10.3925 11.4862H9.87505L9.65599 10.9993H8.54117ZM8.72423 10.5774H9.46805L9.09278 9.73926L8.72423 10.5774ZM9.91105 6.16618C8.20008 6.16618 6.81311 4.8325 6.81311 3.1875H7.25123C7.2317 4.11469 7.7345 4.97925 8.56558 5.44838C8.97739 5.6791 9.44093 5.8002 9.91227 5.8002C10.3836 5.8002 10.8471 5.6791 11.259 5.44838C12.0906 4.97925 12.5934 4.11408 12.5733 3.1875H13.012C13.0103 3.58243 12.9289 3.9729 12.7726 4.33517C12.6163 4.69744 12.3884 5.02395 12.1028 5.29487C11.5106 5.85796 10.7258 6.16956 9.91105 6.16618Z" fill="white"/>
</svg>
