<svg width="78" height="20" viewBox="0 0 78 20" fill="none" xmlns="http://www.w3.org/2000/svg">
<path d="M28.109 9.58789H29.436L32.3091 17.4768H31.0206L30.2966 15.3446H27.2484L26.519 17.4768H25.2305L28.109 9.58789ZM27.5774 14.3604H29.9622L28.7835 10.8941H28.7615L27.5774 14.3604Z" fill="#4B4036"/>
<path d="M33.6016 11.7261H34.7857V12.7158H34.8132C35.1586 12.0323 35.7947 11.6172 36.6169 11.6172C38.086 11.6172 39.0291 12.7651 39.0291 14.6021V14.6076C39.0291 16.439 38.0806 17.5924 36.6333 17.5924C35.8166 17.5924 35.1532 17.1767 34.8132 16.5102H34.7857V19.3916H33.6016V11.7267V11.7261ZM37.8236 14.6069V14.6015C37.8236 13.3768 37.237 12.6282 36.3104 12.6282C35.3839 12.6282 34.7808 13.4042 34.7808 14.6015V14.6069C34.7808 15.7987 35.4168 16.5748 36.3104 16.5748C37.204 16.5748 37.8236 15.82 37.8236 14.6069Z" fill="#4B4036"/>
<path d="M40.5039 11.7261H41.688V12.7158H41.7155C42.061 12.0323 42.697 11.6172 43.5192 11.6172C44.9884 11.6172 45.9314 12.7651 45.9314 14.6021V14.6076C45.9314 16.439 44.9829 17.5924 43.5357 17.5924C42.719 17.5924 42.0555 17.1767 41.7155 16.5102H41.688V19.3916H40.5039V11.7267V11.7261ZM44.7253 14.6069V14.6015C44.7253 13.3768 44.1387 12.6282 43.2122 12.6282C42.2856 12.6282 41.6826 13.4042 41.6826 14.6015V14.6069C41.6826 15.7987 42.3186 16.5748 43.2122 16.5748C44.1058 16.5748 44.7253 15.82 44.7253 14.6069Z" fill="#4B4036"/>
<path d="M50.0406 15.3775L50.0352 15.2953H51.2303L51.2413 15.3665C51.3511 16.0939 52.0799 16.5474 53.1383 16.5474C54.1967 16.5474 54.8651 16.072 54.8651 15.3337V15.3282C54.8651 14.694 54.4317 14.3495 53.3849 14.12L52.5243 13.9398C50.9727 13.6118 50.2219 12.9009 50.2219 11.731V11.7255C50.2274 10.3804 51.4171 9.45703 53.0895 9.45703C54.762 9.45703 55.8692 10.3536 55.9516 11.6768L55.9571 11.77H54.762L54.7565 11.6933C54.6466 10.9604 54.0106 10.5179 53.0736 10.5179C52.0921 10.5234 51.4671 10.9878 51.4671 11.6768V11.6823C51.4671 12.2727 51.917 12.6336 52.9033 12.8467L53.7695 13.0268C55.4035 13.3713 56.1048 14.033 56.1048 15.2521V15.2576C56.1048 16.6953 54.9646 17.6083 53.0895 17.6083C51.3133 17.6083 50.1401 16.7665 50.0413 15.3775H50.0406Z" fill="#4B4036"/>
<path d="M57.9566 15.9633V12.6668H57.1289V11.7264H57.9566V10.2285H59.1682V11.7264H60.248V12.6668H59.1682V15.8921C59.1682 16.4771 59.4313 16.6517 59.93 16.6517C60.0563 16.6517 60.1601 16.6408 60.248 16.6298V17.5428C60.1106 17.5647 59.886 17.5921 59.6449 17.5921C58.5047 17.5921 57.9566 17.1113 57.9566 15.9627V15.9633Z" fill="#4B4036"/>
<path d="M61.3906 14.6021V14.5911C61.3906 12.7542 62.4814 11.6172 64.1209 11.6172C65.7604 11.6172 66.8621 12.7487 66.8621 14.5911V14.6021C66.8621 16.4555 65.7768 17.5924 64.1264 17.5924C62.4759 17.5924 61.3906 16.45 61.3906 14.6021ZM65.6505 14.6021V14.5911C65.6505 13.3336 65.0474 12.6069 64.1209 12.6069C63.1943 12.6069 62.6022 13.3342 62.6022 14.5911V14.6021C62.6022 15.876 63.2053 16.6028 64.1319 16.6028C65.0584 16.6028 65.6505 15.8699 65.6505 14.6021Z" fill="#4B4036"/>
<path d="M68.3398 11.7261H69.524V12.7103H69.5515C69.7376 12.0378 70.2204 11.6172 70.8784 11.6172C71.0481 11.6172 71.1964 11.6446 71.2898 11.661V12.7596C71.1964 12.7213 70.9883 12.6939 70.7582 12.6939C69.9964 12.6939 69.5246 13.1912 69.5246 14.05V17.478H68.3405V11.7267L68.3398 11.7261Z" fill="#4B4036"/>
<path d="M72.0828 14.624V14.6185C72.0828 12.8199 73.1247 11.6172 74.7416 11.6172C76.3585 11.6172 77.351 12.7761 77.351 14.5035V14.9028H73.2663C73.2883 15.9904 73.8858 16.6247 74.8289 16.6247C75.5308 16.6247 75.9965 16.2637 76.1449 15.8322L76.1613 15.7884H77.2851L77.2741 15.8486C77.0879 16.7616 76.1998 17.5924 74.8014 17.5924C73.1076 17.5924 72.0822 16.439 72.0822 14.624H72.0828ZM73.2834 14.0665H76.1778C76.0789 13.0713 75.5198 12.585 74.7471 12.585C73.9743 12.585 73.3872 13.1042 73.2834 14.0665Z" fill="#4B4036"/>
<path d="M14.6811 8.02517C13.9426 8.53706 13.4408 9.05077 13.1753 9.56692C12.9098 10.0831 12.7767 10.6424 12.7767 11.2438C12.7767 11.7198 12.8555 12.155 13.013 12.55C13.1704 12.945 13.3932 13.3199 13.6813 13.6748C13.9694 14.0296 14.451 14.3821 15.1267 14.732C14.8655 15.4953 14.4602 16.2738 13.9114 17.0687C13.3621 17.863 12.8646 18.4266 12.4191 18.759C11.9735 19.0913 11.548 19.2575 11.1428 19.2575C10.8186 19.2575 10.3816 19.1546 9.83287 18.9476L9.57651 18.8533L9.15779 18.678C8.86053 18.5885 8.53214 18.5435 8.17202 18.5435C7.81189 18.5435 7.3889 18.6244 6.92928 18.7857L6.60516 18.9069L6.19987 19.0688C5.87576 19.1948 5.55164 19.2575 5.22753 19.2575C4.54329 19.2575 3.80961 18.7797 3.02588 17.8234C2.24276 16.8672 1.65069 15.8392 1.24967 14.7393C0.848643 13.6395 0.648438 12.5287 0.648438 11.4063C0.648438 9.96073 1.06045 8.758 1.88446 7.79692C2.70848 6.83645 3.8267 6.35622 5.24035 6.35622C5.75368 6.35622 6.23527 6.45056 6.68573 6.63925L6.99642 6.76037L7.32053 6.89489C7.60863 7.01175 7.83814 7.07018 8.00904 7.07018C8.26113 7.07018 8.51322 7.02088 8.76531 6.92227L9.19746 6.76037L9.50815 6.63925C10.0123 6.45056 10.5702 6.35622 11.183 6.35622C12.6327 6.35622 13.7985 6.91314 14.6811 8.02639V8.02517ZM11.2502 1.60742C11.2679 1.80524 11.277 1.9574 11.277 2.06514C11.277 2.62206 11.1147 3.19664 10.7906 3.78887C10.4664 4.3811 10.0428 4.84186 9.52096 5.16932C8.99848 5.49739 8.42227 5.66112 7.79236 5.66112C7.7655 5.44566 7.75207 5.28862 7.75207 5.19002C7.75207 4.71404 7.89368 4.21372 8.17751 3.68844C8.46134 3.16317 8.84588 2.71641 9.33236 2.34817C9.81883 1.97992 10.3676 1.74681 10.9798 1.64759C11.0341 1.63907 11.1238 1.62507 11.2502 1.60742Z" fill="#4B4036"/>
<path d="M26.561 5.79258C26.2134 5.60559 25.9292 5.31915 25.7445 4.96972C25.5495 4.58872 25.4522 4.165 25.4616 3.73686C25.4515 3.28776 25.5552 2.84342 25.763 2.44544C25.9605 2.08018 26.2628 1.78281 26.6308 1.59186C27.0456 1.38186 27.5058 1.27829 27.9703 1.29044C28.4108 1.27881 28.8471 1.37906 29.2386 1.58186C29.5877 1.77186 29.8684 2.05686 30.0473 2.40044C30.2396 2.78186 30.3351 3.20258 30.3251 3.62615C30.3362 4.07994 30.2317 4.52907 30.0216 4.93115C29.8246 5.29586 29.5237 5.5935 29.1574 5.78615C28.7512 5.99329 28.2952 6.09758 27.8342 6.08615C27.3919 6.09891 26.9536 5.99739 26.561 5.79258ZM28.7413 5.22401C28.9778 5.07044 29.1623 4.85258 29.2699 4.59758C29.3911 4.30901 29.4502 3.99901 29.4438 3.68758C29.4509 3.38044 29.3989 3.07472 29.2913 2.78544C29.1939 2.53069 29.0214 2.31171 28.7968 2.15758C28.5357 1.99284 28.2309 1.9114 27.9226 1.92401C27.6159 1.9145 27.3134 1.99735 27.0541 2.16186C26.8165 2.31832 26.6302 2.5414 26.5183 2.80329C26.3971 3.08186 26.3387 3.38186 26.3444 3.68401C26.338 3.99115 26.3943 4.29544 26.5083 4.58258C26.6109 4.83686 26.7897 5.05615 27.022 5.21401C27.2788 5.37519 27.5777 5.45601 27.8806 5.44615C28.1841 5.45686 28.484 5.37972 28.7405 5.22472L28.7413 5.22401ZM32.0309 2.02829H30.5211L30.5952 1.35472H34.3821L34.3045 2.02829H32.8723V6.02258H32.0309V2.02829ZM38.9136 6.02186H37.9653L36.516 3.96901H35.9396V6.02258H35.0996V1.35472H35.9403V3.27972H36.3807L37.3903 1.88686C37.5071 1.70972 37.6582 1.55615 37.8356 1.43401C38.0052 1.33401 38.2018 1.28401 38.4006 1.29044C38.5738 1.28758 38.7455 1.31901 38.9058 1.37972L38.7291 2.01544C38.644 1.98031 38.5531 1.96164 38.4612 1.96044C38.3714 1.95792 38.2829 1.98283 38.2075 2.03186C38.1261 2.09378 38.0556 2.16886 37.9988 2.25401L37.101 3.47829L38.9136 6.02186ZM39.557 1.35472H40.868C41.485 1.35472 41.9574 1.47472 42.2845 1.71615C42.6108 1.95758 42.7747 2.30544 42.7761 2.75972C42.7818 3.04472 42.7048 3.32544 42.5538 3.57115C42.4043 3.80407 42.1907 3.98864 41.9389 4.10258C41.656 4.23044 41.3468 4.29401 41.034 4.28829C40.8197 4.2856 40.6061 4.26385 40.3956 4.22329V6.01972H39.5541L39.557 1.35472ZM41.6653 3.43901C41.8505 3.26758 41.9489 3.02615 41.9332 2.77901C41.9332 2.49186 41.842 2.28329 41.6653 2.15758C41.4222 2.01538 41.1424 1.94899 40.8616 1.96686H40.4049V3.62401C40.5645 3.65115 40.7255 3.66686 40.8887 3.67258C41.1687 3.68972 41.4458 3.60615 41.6653 3.43901ZM44.3942 5.79258C44.0461 5.60605 43.7615 5.31951 43.5769 4.96972C43.3819 4.58872 43.2847 4.165 43.2941 3.73686C43.2841 3.28795 43.3873 2.84377 43.594 2.44544C43.7917 2.08008 44.0943 1.7827 44.4626 1.59186C44.8774 1.38197 45.3376 1.27841 45.8021 1.29044C46.2421 1.27889 46.6779 1.37915 47.0689 1.58186C47.418 1.77115 47.7002 2.05615 47.8783 2.40044C48.0714 2.78186 48.1676 3.20186 48.1583 3.62615C48.1691 4.08 48.0644 4.52913 47.8541 4.93115C47.6558 5.29582 47.3537 5.59299 46.9862 5.78472C46.5794 5.99186 46.1241 6.09615 45.6624 6.08472C45.2218 6.09685 44.7853 5.99631 44.3942 5.79258ZM46.5723 5.22401C46.8124 5.07044 46.9998 4.85186 47.1081 4.59544C47.2278 4.30544 47.2848 3.99544 47.2769 3.68401C47.2823 3.37733 47.2296 3.07242 47.1216 2.78544C47.0242 2.53069 46.8517 2.31171 46.6271 2.15758C46.366 1.9922 46.0608 1.91071 45.7522 1.92401C45.4462 1.91485 45.1444 1.99768 44.8858 2.16186C44.6487 2.31882 44.4625 2.54175 44.35 2.80329C44.2289 3.08186 44.1676 3.38186 44.1719 3.68401C44.1676 3.99115 44.2246 4.29615 44.3407 4.58258C44.4426 4.83686 44.6215 5.05686 44.8552 5.21401C45.1088 5.37472 45.4081 5.45615 45.7123 5.44615C46.0158 5.45686 46.3151 5.37901 46.5723 5.22472V5.22401ZM52.4411 6.02258V3.45544C52.4411 3.13258 52.4533 2.76258 52.4768 2.34686L50.0336 6.02186H49.0952V1.35401H49.8761V4.01972C49.8761 4.30972 49.8669 4.62686 49.8455 4.97044L52.2566 1.35401H53.2228V6.02186H52.4419L52.4411 6.02258ZM50.543 0.949007C50.3809 0.870466 50.2423 0.750485 50.1412 0.60115C50.049 0.463304 49.9884 0.306695 49.9638 0.142578H50.5694C50.6335 0.486864 50.8458 0.656149 51.2021 0.656149C51.5583 0.656149 51.77 0.484721 51.8384 0.142578H52.4461C52.4219 0.306864 52.3606 0.464007 52.2666 0.603293C52.1668 0.75115 52.0286 0.87115 51.8647 0.95115C51.6566 1.04027 51.4327 1.08622 51.2064 1.08622C50.9801 1.08622 50.7561 1.04027 50.548 0.95115L50.543 0.949007ZM55.4443 2.02829H53.9402L54.0136 1.35472H57.8048L57.7272 2.02829H56.2858V6.02258H55.4443V2.02829ZM58.5124 1.35472H61.3816L61.3082 2.01544H59.3531V3.29901H61.1899V3.91972H59.3531V5.35258H61.4058L61.3346 6.02401H58.5124V1.35472ZM67.2704 3.71615C67.4443 3.81424 67.5883 3.95794 67.687 4.13185C67.7857 4.30575 67.8352 4.50329 67.8304 4.70329C67.8354 4.94686 67.7642 5.18686 67.6267 5.39258C67.4799 5.59972 67.2733 5.76044 67.0317 5.85544C66.7333 5.97298 66.4146 6.0298 66.0941 6.02258H64.5045V1.35472H66.0242C66.5401 1.35472 66.9263 1.45044 67.1849 1.64186C67.4407 1.82758 67.5853 2.12115 67.5718 2.42901C67.5803 2.68115 67.492 2.92829 67.3238 3.12329C67.1536 3.31186 66.9284 3.44829 66.6769 3.51472C66.8871 3.54258 67.0887 3.61115 67.2704 3.71615ZM65.3267 3.26258H65.8518C66.0121 3.26615 66.171 3.23186 66.3142 3.16258C66.4411 3.10258 66.5479 3.00901 66.622 2.89329C66.6935 2.78253 66.7307 2.65305 66.7289 2.52115C66.7338 2.43705 66.7165 2.35313 66.6788 2.27788C66.641 2.20263 66.584 2.13871 66.5137 2.09258C66.3217 1.98717 66.1039 1.93815 65.8853 1.95115H65.3267V3.26258ZM66.736 5.22401C66.9028 5.07258 66.9947 4.86115 66.9897 4.64115C66.9865 4.53118 66.9599 4.42317 66.9114 4.32446C66.863 4.22574 66.7939 4.13862 66.709 4.06901C66.4631 3.91859 66.177 3.84776 65.8896 3.86615H65.3267V5.43186H65.9587C66.3057 5.42758 66.5643 5.35829 66.7353 5.22472L66.736 5.22401Z" fill="#4B4036"/>
</svg>
