<svg width="24" height="24" viewBox="0 0 24 24" fill="none" xmlns="http://www.w3.org/2000/svg">
<path d="M5.29279 5.29308C5.48031 5.10561 5.73462 5.00029 5.99979 5.00029C6.26495 5.00029 6.51926 5.10561 6.70679 5.29308L11.9998 10.5861L17.2928 5.29308C17.385 5.19757 17.4954 5.12139 17.6174 5.06898C17.7394 5.01657 17.8706 4.98898 18.0034 4.98783C18.1362 4.98668 18.2678 5.01198 18.3907 5.06226C18.5136 5.11254 18.6253 5.18679 18.7192 5.28069C18.8131 5.37458 18.8873 5.48623 18.9376 5.60913C18.9879 5.73202 19.0132 5.8637 19.012 5.99648C19.0109 6.12926 18.9833 6.26048 18.9309 6.38249C18.8785 6.50449 18.8023 6.61483 18.7068 6.70708L13.4138 12.0001L18.7068 17.2931C18.8889 17.4817 18.9897 17.7343 18.9875 17.9965C18.9852 18.2587 18.88 18.5095 18.6946 18.6949C18.5092 18.8803 18.2584 18.9855 17.9962 18.9878C17.734 18.99 17.4814 18.8892 17.2928 18.7071L11.9998 13.4141L6.70679 18.7071C6.51818 18.8892 6.26558 18.99 6.00339 18.9878C5.74119 18.9855 5.49038 18.8803 5.30497 18.6949C5.11956 18.5095 5.01439 18.2587 5.01211 17.9965C5.00983 17.7343 5.11063 17.4817 5.29279 17.2931L10.5858 12.0001L5.29279 6.70708C5.10532 6.51955 5 6.26525 5 6.00008C5 5.73492 5.10532 5.48061 5.29279 5.29308Z" fill="#FF5D5D"/>
</svg>
