<svg width="85" height="85" viewBox="0 0 85 85" fill="none" xmlns="http://www.w3.org/2000/svg">
<path d="M59.9157 55.2109C60.1473 57.119 60.1058 59.2746 59.79 61.7293C59.7523 62.0224 59.5023 62.2363 59.2145 62.2363C59.1897 62.2363 59.1648 62.2347 59.1396 62.2314C58.8213 62.1905 58.5964 61.8993 58.6375 61.581C58.9995 58.7668 58.9909 56.3769 58.6079 54.3319C58.6079 54.3319 58.6078 54.3319 58.6078 54.3318C58.5024 53.7718 58.3678 53.2255 58.1986 52.6953C55.4765 49.6466 52.2589 48.4182 48.7691 48.1902C49.6047 52.3731 49.8614 56.4304 49.5287 60.2712C49.5025 60.5738 49.2487 60.8021 48.9505 60.8021C48.9337 60.8021 48.9168 60.8014 48.8997 60.7999C48.58 60.7722 48.3433 60.4906 48.371 60.1709C48.7013 56.3583 48.4341 52.3205 47.577 48.1511C47.5769 48.1505 47.5772 48.15 47.5771 48.1494L47.577 48.152C47.4931 47.7444 47.4043 47.3359 47.3093 46.9262C43.7793 44.7019 40.4609 43.8324 37.3541 44.3176C34.2472 44.8028 31.3519 46.6426 28.6682 49.8372C28.7026 50.2564 28.7426 50.6726 28.7869 51.0863L28.7861 51.0838C28.7861 51.0839 28.7862 51.0838 28.7861 51.0838C29.2425 55.3209 30.219 59.2485 31.6944 62.7752C31.8182 63.0712 31.6786 63.4116 31.3825 63.5354C31.3093 63.5661 31.2333 63.5806 31.1585 63.5806C30.9312 63.5806 30.7155 63.4464 30.6222 63.2237C29.1361 59.6712 28.1437 55.7288 27.6629 51.4863C24.4089 52.7676 21.7192 54.9184 20.0562 58.6517C20.0568 59.1976 20.0941 59.7482 20.162 60.3026C20.4269 62.4499 21.1926 64.8328 22.4826 67.5339C22.6209 67.8235 22.4983 68.1703 22.2087 68.3086C22.1279 68.3472 22.0426 68.3655 21.9587 68.3655C21.7418 68.3655 21.5337 68.2435 21.434 68.0347C20.3079 65.6768 19.5656 63.5396 19.1885 61.5703C15.4211 66.4901 13.6599 70.9338 16.8915 74.1924C17.0599 74.3623 17.2495 74.5133 17.4604 74.6265C20.0966 76.0419 22.304 73.2362 24.1991 70.8094C28.3242 71.3595 31.3381 70.3014 33.8351 67.0648C36.243 68.3759 38.3854 68.5029 41.0608 68.0539C43.7457 67.6659 45.7474 66.8917 47.6409 64.9089C51.0058 67.2301 54.1988 67.3188 57.9598 65.5372C60.5046 67.2707 63.4623 69.2697 65.5415 67.118C65.7077 66.9459 65.8423 66.7443 65.951 66.5311C68.035 62.4426 65.0032 58.7477 59.9157 55.2109Z" fill="#DBD1C8"/>
<path d="M79.4512 46.9644C82.519 43.0195 84.1742 34.978 81.7976 30.1208C80.5017 27.4722 78.1642 26.0724 75.037 26.0724H75.0342C72.7389 26.073 70.6087 27.3278 69.2895 28.6703C69.2955 28.2996 69.2994 27.9283 69.2996 27.5561C69.2997 27.5463 69.3007 27.5366 69.3007 27.5269C69.3007 24.9049 66.1908 22.5027 60.5438 20.7627C56.2267 19.4326 50.786 18.5776 44.8887 18.2816V16.4877C44.8887 16.0019 45.284 15.6067 45.7698 15.6067H57.7464C58.9015 15.6067 59.8413 14.6669 59.8413 13.5118C59.8413 12.9975 60.2597 12.579 60.774 12.579H68.7187C69.0396 12.579 69.2998 12.3189 69.2998 11.998C69.2998 11.677 69.0396 11.4169 68.7187 11.4169H60.774C59.6189 11.4169 58.6791 12.3567 58.6791 13.5118C58.6791 14.0261 58.2607 14.4445 57.7464 14.4445H45.7698C44.6432 14.4445 43.7266 15.3611 43.7266 16.4877V18.2303C42.5722 18.1872 41.4024 18.1652 40.2217 18.1652C39.949 18.1652 39.677 18.1667 39.4054 18.169V14.0983C39.4054 12.9882 40.3086 12.0851 41.4187 12.0851H51.6824C53.6034 12.0851 55.1663 10.5222 55.1663 8.60113C55.1663 7.32087 56.2079 6.2793 57.4882 6.2793H70.575C70.896 6.2793 71.1561 6.01913 71.1561 5.69824C71.1561 5.37732 70.896 5.11719 70.575 5.11719H57.4882C55.5671 5.11719 54.0042 6.68007 54.0042 8.60113C54.0042 9.88142 52.9626 10.923 51.6824 10.923H41.4187C39.6678 10.923 38.2433 12.3475 38.2433 14.0983V18.1862C31.3185 18.3309 24.8658 19.2325 19.8996 20.7627C14.2526 22.5026 11.1427 24.9049 11.1427 27.5269C11.1427 27.5369 11.1438 27.5468 11.1438 27.5568C11.1476 36.1693 12.7724 44.5499 15.7762 51.7041C7.06013 55.0477 2.07422 59.9752 2.07422 65.2802C2.07422 70.0794 6.10294 74.5523 13.4183 77.875C20.5876 81.1314 30.1066 82.9247 40.2217 82.9247C50.3369 82.9247 59.8559 81.1314 67.0251 77.875C74.3405 74.5523 78.3692 70.0794 78.3692 65.2802C78.3692 61.1589 75.3295 57.2115 69.7786 54.0797C73.8897 52.2497 77.2565 49.7866 79.4512 46.9644ZM12.3057 27.527C12.3057 27.5249 12.3051 27.5229 12.3051 27.5208C12.3162 23.7213 22.6515 19.667 38.2433 19.3481V20.2739C38.2433 20.5949 38.5035 20.855 38.8244 20.855C39.1453 20.855 39.4054 20.5949 39.4054 20.2739V19.3308C39.6761 19.3286 39.9481 19.3273 40.2217 19.3273C41.4193 19.3273 42.5876 19.3498 43.7266 19.3917V22.8756C42.5791 22.8202 41.4084 22.7914 40.2217 22.7914C31.2347 22.7914 23.1495 24.4275 19.3325 26.9869C18.9567 26.5355 18.7579 26.0788 18.7579 25.6304C18.7579 25.3095 18.4978 25.0493 18.1768 25.0493C17.8559 25.0493 17.5958 25.3095 17.5958 25.6304C17.5958 27.7754 19.9695 29.6505 24.4605 31.0528C28.6787 32.3701 34.2761 33.0956 40.2217 33.0956C46.1673 33.0956 51.7647 32.3701 55.983 31.0528C60.4739 29.6505 62.8476 27.7754 62.8476 25.6304C62.8476 25.3095 62.5875 25.0493 62.2666 25.0493C61.9456 25.0493 61.6855 25.3095 61.6855 25.6304C61.6855 26.0788 61.4867 26.5355 61.1109 26.9869C57.9694 24.8804 51.9364 23.4004 44.8887 22.9423V19.4416C58.9691 20.1414 68.1279 23.9441 68.1383 27.5208C68.1383 27.5229 68.1377 27.5249 68.1377 27.527C68.1377 27.5349 68.1375 27.5427 68.1375 27.5506C68.093 31.5037 56.8877 35.7266 40.2217 35.7266C23.5558 35.7266 12.3514 31.5041 12.3059 27.5511C12.3059 27.5431 12.3057 27.535 12.3057 27.527ZM27.6412 30.6885C26.641 30.4672 25.6907 30.2196 24.8069 29.9436C22.8187 29.3227 21.2521 28.5834 20.2113 27.8016C22.7816 26.1851 27.3782 24.9528 32.7952 24.3544C30.6373 25.287 28.8041 26.9012 27.6564 29.022C27.642 29.0488 27.6276 29.0756 27.6134 29.1024C27.3333 29.6308 27.3759 30.2199 27.6412 30.6885ZM68.7938 35.8837C69.2876 34.9708 72.1204 32.0026 73.501 32.0022H73.5024C74.9887 32.0022 76.0493 32.6351 76.6541 33.883C77.8806 36.4143 76.969 40.7358 75.3664 42.7644C73.3051 45.3735 69.5428 48.6802 65.3729 49.9562C67.0361 45.5837 68.1865 40.8446 68.7938 35.8837ZM66.0732 54.2682C65.7685 54.3692 65.6036 54.6981 65.7047 55.0027C65.7856 55.2465 66.0125 55.4009 66.256 55.4009C66.3167 55.4009 66.3784 55.3913 66.4391 55.3711C67.1099 55.1485 67.7659 54.9096 68.4067 54.6562C74.0832 57.6443 77.2071 61.4103 77.2071 65.2802C77.2071 69.5967 73.4203 73.6939 66.5445 76.817C59.5229 80.0062 50.1747 81.7626 40.2217 81.7626C30.2688 81.7626 20.9205 80.0062 13.8989 76.817C7.02308 73.6939 3.23633 69.5967 3.23633 65.2802C3.23633 60.4734 7.96805 55.932 16.2382 52.7714C16.8342 54.1048 17.4788 55.3927 18.1716 56.6273C18.2782 56.8173 18.4755 56.9242 18.6789 56.9242C18.7751 56.9242 18.8727 56.9002 18.9627 56.8497C19.2425 56.6927 19.342 56.3385 19.185 56.0587C15.14 48.8499 12.7531 39.7894 12.3635 30.2926C13.7574 31.8166 16.317 33.1873 19.8996 34.2911C25.336 35.9662 32.5532 36.8887 40.2217 36.8887C47.8902 36.8887 55.1074 35.9662 60.5438 34.2911C64.1285 33.1866 66.689 31.815 68.0824 30.2899C68.0796 30.3603 68.0758 30.4304 68.0728 30.5008C68.0728 30.5014 68.0727 30.502 68.0727 30.5026C67.7039 39.0759 65.7416 47.1504 62.3396 54.0112C62.1971 54.2987 62.3146 54.6473 62.6021 54.7899C62.685 54.831 62.773 54.8505 62.8598 54.8505C63.0735 54.8505 63.2794 54.732 63.3808 54.5275C63.9 53.4803 64.3857 52.4051 64.8387 51.3055C69.6154 50.1652 73.9694 46.4074 76.2783 43.4848C78.1274 41.1442 79.1282 36.324 77.6999 33.3763C76.8958 31.717 75.4445 30.84 73.5024 30.84H73.5007C72.3309 30.8404 70.9161 31.9242 69.9352 32.8334C69.6209 33.1248 69.3088 33.4385 69.0207 33.749C69.1126 32.7275 69.1825 31.698 69.2287 30.6611C69.8602 29.4144 72.302 27.2352 75.0345 27.2345H75.037C77.7273 27.2345 79.6509 28.3776 80.7538 30.6316C82.9128 35.0441 81.3333 42.6511 78.5339 46.251C75.9098 49.6253 71.4846 52.4725 66.0732 54.2682Z" fill="#ACA095"/>
<path d="M33.0771 16.5336C33.3981 16.5336 33.6582 16.2735 33.6582 15.9526V13.8758C33.6582 10.6317 36.2974 7.99254 39.5415 7.99254H46.4478C49.0047 7.99254 51.0848 5.9124 51.0848 3.35557V2.65625C51.0848 2.33532 50.8247 2.0752 50.5038 2.0752C50.1828 2.0752 49.9227 2.33532 49.9227 2.65625V3.35557C49.9227 5.2716 48.3639 6.83043 46.4478 6.83043H39.5415C35.6566 6.83043 32.4961 9.99097 32.4961 13.8758V15.9526C32.4961 16.2735 32.7562 16.5336 33.0771 16.5336Z" fill="#DBD1C8"/>
</svg>
