<svg width="165" height="60" viewBox="0 0 165 60" fill="none" xmlns="http://www.w3.org/2000/svg">
<path d="M24.5338 28.4129V30.6L24.4663 30.6417C23.944 30.9649 23.0309 31.2933 21.6759 31.6452C20.3434 31.9919 19.1698 32.1676 18.1869 32.1676C16.1907 32.1676 14.4527 31.7635 13.0225 30.9663C11.5871 30.1653 10.4892 29.0717 9.75948 27.7143C9.02979 26.3593 8.66016 24.8381 8.66016 23.1944C8.66016 21.5334 9.03026 20.0042 9.75948 18.6482C10.4901 17.2908 11.5885 16.1934 13.022 15.3861C14.4508 14.5798 16.1883 14.1719 18.1869 14.1719C19.2512 14.1719 20.4343 14.3428 21.7046 14.6813C22.9696 15.0198 23.8894 15.3617 24.4386 15.6964L24.5061 15.7376L24.507 17.9262H24.0742L24.0325 17.8586C23.8913 17.6303 23.5504 17.3018 23.0213 16.8814C22.4865 16.4562 21.7587 16.0612 20.859 15.7069C19.9618 15.3526 18.9266 15.173 17.7823 15.173C16.2606 15.173 14.9392 15.535 13.8556 16.2484C12.7687 16.9638 11.9395 17.9386 11.3893 19.1466C10.8344 20.3633 10.5533 21.724 10.5533 23.1934C10.5533 24.6624 10.8344 26.015 11.3888 27.2144C11.9385 28.4076 12.7683 29.3752 13.8556 30.0891C14.9392 30.803 16.2602 31.1655 17.7823 31.1655C18.8907 31.1655 19.9015 31.0175 20.7853 30.7259C21.663 30.4353 22.3836 30.0805 22.927 29.6726C23.4656 29.2675 23.8458 28.8682 24.056 28.4861L24.0962 28.4129H24.5338ZM46.3067 30.2548C47.4108 29.5313 48.2573 28.5436 48.8233 27.3164C49.3916 26.083 49.6803 24.6964 49.6808 23.1939C49.6808 21.6761 49.3926 20.2809 48.8233 19.047C48.2573 17.8199 47.4108 16.8268 46.3062 16.0952C45.2045 15.3665 43.8543 14.9969 42.2915 14.9969C40.7306 14.9969 39.3789 15.3665 38.2753 16.0957C37.1693 16.8278 36.3232 17.8208 35.7601 19.047C35.1909 20.2804 34.9021 21.6756 34.9021 23.1939C34.9021 24.6959 35.1904 26.0825 35.7597 27.3164C36.3227 28.5421 37.1683 29.5304 38.2743 30.2548C39.3784 30.9764 40.7306 31.3422 42.291 31.3422C43.8538 31.3422 45.204 30.9764 46.3067 30.2548ZM51.5132 23.1939C51.5132 24.8209 51.1502 26.3339 50.4349 27.688C49.7177 29.0468 48.6485 30.1447 47.2576 30.9515C45.8676 31.7582 44.1966 32.1671 42.291 32.1671C40.3523 32.1671 38.6641 31.7626 37.2736 30.9653C35.8813 30.1648 34.8207 29.0698 34.1198 27.7119C33.4202 26.3578 33.0664 24.8381 33.0664 23.1944C33.0664 21.5349 33.4202 20.0065 34.1198 18.6515C34.8207 17.2932 35.8813 16.1948 37.2727 15.3871C38.6631 14.5808 40.3514 14.1719 42.2905 14.1719C44.2282 14.1719 45.9165 14.5808 47.3064 15.3871C48.6973 16.1938 49.7584 17.2917 50.4598 18.6515C51.1584 20.0061 51.5132 21.5344 51.5132 23.1939Z" fill="#4B4036"/>
<path d="M24.5338 43.3713V45.5585L24.4663 45.6002C23.944 45.9234 23.0309 46.2518 21.6759 46.6037C20.3434 46.9504 19.1698 47.1261 18.1869 47.1261C16.1907 47.1261 14.4527 46.722 13.0225 45.9248C11.5871 45.1238 10.4892 44.0302 9.75948 42.6728C9.02979 41.3178 8.66016 39.7966 8.66016 38.1529C8.66016 36.4919 9.03026 34.9626 9.75948 33.6067C10.4901 32.2493 11.5885 31.1519 13.022 30.3446C14.4508 29.5383 16.1883 29.1299 18.1869 29.1299C19.2512 29.1299 20.4343 29.3013 21.7046 29.6393C22.9696 29.9783 23.8894 30.3197 24.4386 30.6549L24.5061 30.696L24.507 32.8846H24.0742L24.0325 32.8171C23.8913 32.5887 23.5504 32.2603 23.0213 31.8399C22.4865 31.4147 21.7587 31.0197 20.859 30.6654C19.9618 30.3111 18.9266 30.1315 17.7823 30.1315C16.2606 30.1315 14.9392 30.4935 13.8556 31.2069C12.7687 31.9222 11.9395 32.8971 11.3893 34.1051C10.8344 35.3217 10.5533 36.6825 10.5533 38.1519C10.5533 39.6209 10.8344 40.9735 11.3888 42.1729C11.9385 43.3661 12.7683 44.3337 13.8556 45.0476C14.9392 45.7615 16.2602 46.124 17.7823 46.124C18.8907 46.124 19.9015 45.976 20.7853 45.6844C21.663 45.3938 22.3836 45.039 22.927 44.6311C23.4656 44.226 23.8458 43.8267 24.056 43.4446L24.0962 43.3713H24.5338ZM46.3067 45.2133C47.4108 44.4898 48.2573 43.5021 48.8233 42.2749C49.3916 41.0415 49.6803 39.6549 49.6808 38.1524C49.6808 36.6346 49.3926 35.2394 48.8233 34.0055C48.2573 32.7783 47.4108 31.7853 46.3062 31.0532C45.2045 30.3245 43.8543 29.9549 42.2915 29.9549C40.7306 29.9549 39.3789 30.3245 38.2753 31.0537C37.1693 31.7863 36.3232 32.7793 35.7601 34.0055C35.1909 35.2389 34.9021 36.6341 34.9021 38.1524C34.9021 39.6544 35.1904 41.041 35.7597 42.2749C36.3227 43.5006 37.1683 44.4889 38.2743 45.2133C39.3784 45.9348 40.7306 46.3006 42.291 46.3006C43.8538 46.3006 45.204 45.9348 46.3067 45.2133ZM51.5132 38.1524C51.5132 39.7794 51.1502 41.2924 50.4349 42.6464C49.7177 44.0053 48.6485 45.1032 47.2576 45.9099C45.8676 46.7167 44.1966 47.1256 42.291 47.1256C40.3523 47.1256 38.6641 46.721 37.2736 45.9238C35.8813 45.1233 34.8207 44.0283 34.1198 42.6704C33.4202 41.3163 33.0664 39.7966 33.0664 38.1529C33.0664 36.4934 33.4202 34.965 34.1198 33.61C34.8207 32.2517 35.8813 31.1533 37.2727 30.3456C38.6631 29.5388 40.3514 29.1299 42.2905 29.1299C44.2282 29.1299 45.9165 29.5388 47.3064 30.3456C48.6973 31.1523 49.7584 32.2502 50.4598 33.61C51.1584 34.9646 51.5132 36.4929 51.5132 38.1524ZM28.3438 8.2666V53.9026H29.3014V8.2666H28.3438Z" fill="#4B4036"/>
<path d="M0 0V60H59.9995V0H0ZM1.4364 1.4364H58.5631C58.5631 3.2343 58.5631 56.7657 58.5631 58.5636H1.4364V1.4364ZM87.2467 15.8018V30.3783H85.8042V17.7453L78.8074 29.7163L71.8828 17.8701V30.3783H71V15.8022H72.3425L72.5409 16.1552L79.1214 27.4081L85.9436 15.8018H87.2467ZM99.0643 17.6168L95.1527 25.4442H102.549L99.0643 17.6168ZM106.326 30.1016H104.747L102.933 26.1891H95.5515C95.044 26.1891 94.5853 26.4806 94.3538 26.9505L92.8514 30.1016H91.8398L99.1267 15H99.443L105.641 28.5992L105.535 28.6547L105.644 28.605L106.326 30.1016ZM123.94 19.8678C123.504 18.9065 122.844 18.1304 121.977 17.5611C121.11 16.9931 120.058 16.6987 118.848 16.6851H111.71V29.4935H118.826C120.051 29.4935 121.108 29.2059 121.967 28.6385C122.823 28.0711 123.484 27.2911 123.928 26.3215C124.375 25.348 124.602 24.26 124.601 23.0895C124.601 21.9201 124.379 20.8359 123.94 19.8678ZM126.035 23.0895C126.035 24.3974 125.745 25.6181 125.171 26.7198C124.596 27.82 123.74 28.7111 122.626 29.3683C121.513 30.0249 120.18 30.3651 118.665 30.3783H110.277V15.8018H118.665C120.222 15.8018 121.572 16.1308 122.677 16.7806C123.785 17.4314 124.631 18.3235 125.192 19.431C125.751 20.5357 126.035 21.7665 126.035 23.0895ZM135.937 17.6168L132.026 25.4442H139.422L135.937 17.6168ZM143.199 30.1016H141.62L139.806 26.1891H132.425C131.917 26.1891 131.458 26.4806 131.227 26.9505L129.724 30.1016H128.713L136 15H136.316L142.514 28.5992L142.408 28.6547L142.517 28.605L143.199 30.1016ZM163.395 15.8018V30.3783H161.953V17.7453L154.956 29.7163L148.031 17.8701V30.3783H147.148V15.8022H148.491L148.689 16.1552L155.27 27.4081L162.092 15.8018H163.395ZM99.118 43.0891V44.202L99.0839 44.2235C98.8177 44.3878 98.3532 44.555 97.6639 44.7344C96.9853 44.9103 96.3877 45 95.888 45C94.8716 45 93.9873 44.7943 93.259 44.3887C92.5288 43.9812 91.9701 43.4245 91.5982 42.7337C91.2272 42.044 91.0391 41.2699 91.0391 40.4329C91.0391 39.5876 91.2272 38.8091 91.5982 38.1193C91.9706 37.428 92.5293 36.8699 93.259 36.4589C93.9864 36.049 94.8706 35.8408 95.888 35.8408C96.4296 35.8408 97.0316 35.9281 97.678 36.1001C98.322 36.2727 98.79 36.4467 99.0693 36.6169L99.1039 36.6378L99.1044 37.7517H98.884L98.8631 37.7176C98.7909 37.6016 98.6179 37.4339 98.3478 37.2199C98.0758 37.0034 97.7058 36.8026 97.2481 36.6222C96.7913 36.4419 96.2643 36.3507 95.6818 36.3507C94.9072 36.3507 94.2345 36.535 93.6831 36.8977C93.1303 37.2618 92.7082 37.7581 92.4279 38.3733C92.1456 38.9919 92.0023 39.6846 92.0023 40.4324C92.0023 41.1802 92.1456 41.8685 92.4279 42.4793C92.7077 43.0862 93.1299 43.5785 93.6831 43.9422C94.2345 44.3059 94.9072 44.4901 95.6818 44.4901C96.2458 44.4901 96.7606 44.4146 97.21 44.2664C97.6566 44.1182 98.0236 43.9378 98.3 43.7302C98.5745 43.524 98.7675 43.3207 98.8748 43.1262L98.8953 43.0891H99.118ZM111.404 44.0265C111.966 43.6585 112.397 43.1554 112.685 42.531C112.975 41.9036 113.121 41.1972 113.122 40.4329C113.122 39.6602 112.975 38.95 112.685 38.3221C112.397 37.6981 111.966 37.1921 111.404 36.8197C110.844 36.4492 110.156 36.2605 109.361 36.2605C108.566 36.2605 107.878 36.4492 107.316 36.8202C106.754 37.1926 106.323 37.6986 106.037 38.3221C105.747 38.95 105.6 39.6597 105.6 40.4329C105.6 41.1972 105.747 41.9031 106.037 42.531C106.323 43.1544 106.753 43.658 107.316 44.0265C107.878 44.3936 108.566 44.5798 109.361 44.5798C110.156 44.5798 110.843 44.3936 111.404 44.0265ZM114.054 40.4329C114.054 41.2611 113.87 42.0308 113.505 42.7201C113.141 43.4113 112.596 43.9705 111.888 44.3809C111.181 44.7914 110.33 45 109.361 45C108.374 45 107.515 44.7938 106.807 44.3883C106.099 43.9807 105.559 43.4235 105.202 42.7323C104.846 42.0435 104.666 41.2699 104.666 40.4329C104.666 39.5885 104.846 38.8105 105.202 38.1208C105.559 37.4295 106.099 36.8704 106.807 36.4599C107.514 36.049 108.374 35.8408 109.36 35.8408C110.347 35.8408 111.206 36.049 111.913 36.4599C112.621 36.8699 113.161 37.4285 113.518 38.1208C113.873 38.8105 114.054 39.5881 114.054 40.4329ZM127.173 43.0891V44.202L127.139 44.2235C126.872 44.3878 126.408 44.555 125.719 44.7344C125.04 44.9103 124.442 45 123.942 45C122.926 45 122.042 44.7943 121.314 44.3887C120.583 43.9812 120.025 43.4245 119.653 42.7337C119.282 42.044 119.094 41.2699 119.094 40.4329C119.094 39.5876 119.282 38.8091 119.653 38.1193C120.025 37.428 120.584 36.8699 121.314 36.4589C122.041 36.049 122.925 35.8408 123.942 35.8408C124.484 35.8408 125.087 35.9281 125.733 36.1001C126.377 36.2727 126.845 36.4467 127.124 36.6169L127.159 36.6378L127.16 37.7517H126.939L126.918 37.7176C126.846 37.6016 126.673 37.4339 126.403 37.2199C126.13 37.0034 125.76 36.8026 125.303 36.6222C124.846 36.4419 124.319 36.3507 123.736 36.3507C122.962 36.3507 122.289 36.535 121.738 36.8977C121.185 37.2618 120.763 37.7581 120.483 38.3733C120.2 38.9919 120.057 39.6846 120.057 40.4324C120.057 41.1802 120.2 41.8685 120.483 42.4793C120.762 43.0862 121.185 43.5785 121.738 43.9422C122.289 44.3059 122.962 44.4901 123.736 44.4901C124.3 44.4901 124.815 44.4146 125.265 44.2664C125.712 44.1182 126.078 43.9378 126.355 43.7302C126.629 43.524 126.822 43.3207 126.929 43.1262L126.95 43.0891H127.173ZM139.459 44.0265C140.021 43.6585 140.452 43.1554 140.74 42.531C141.029 41.9036 141.176 41.1972 141.176 40.4329C141.176 39.6602 141.03 38.95 140.74 38.3221C140.452 37.6981 140.021 37.1921 139.459 36.8197C138.899 36.4492 138.211 36.2605 137.416 36.2605C136.621 36.2605 135.934 36.4492 135.371 36.8202C134.809 37.1926 134.378 37.6986 134.091 38.3221C133.802 38.95 133.655 39.6597 133.655 40.4329C133.655 41.1972 133.802 41.9031 134.091 42.531C134.378 43.1544 134.808 43.658 135.371 44.0265C135.933 44.3936 136.622 44.5798 137.416 44.5798C138.21 44.5798 138.898 44.3936 139.459 44.0265ZM142.109 40.4329C142.109 41.2611 141.925 42.0308 141.56 42.7201C141.196 43.4113 140.651 43.9705 139.943 44.3809C139.236 44.7914 138.385 45 137.416 45C136.428 45 135.57 44.7938 134.862 44.3883C134.153 43.9807 133.614 43.4235 133.256 42.7323C132.901 42.0435 132.721 41.2699 132.721 40.4329C132.721 39.5885 132.901 38.8105 133.256 38.1208C133.614 37.4295 134.153 36.8704 134.861 36.4599C135.569 36.049 136.428 35.8408 137.416 35.8408C138.401 35.8408 139.261 36.049 139.968 36.4599C140.676 36.8699 141.216 37.4285 141.573 38.1208C141.928 38.8105 142.109 39.5881 142.109 40.4329Z" fill="#4B4036"/>
</svg>
