<svg width="644" height="644" viewBox="0 0 644 644" fill="none" xmlns="http://www.w3.org/2000/svg">
<g clip-path="url(#clip0_2202_263)">
<path d="M263.318 304.957V328.432L262.594 328.879C256.988 332.348 247.187 335.873 232.644 339.65C218.342 343.372 205.745 345.257 195.195 345.257C173.769 345.257 155.115 340.92 139.764 332.363C124.357 323.766 112.573 312.028 104.741 297.459C96.9088 282.915 92.9414 266.587 92.9414 248.945C92.9414 231.117 96.9138 214.704 104.741 200.149C112.583 185.58 124.372 173.801 139.758 165.136C155.094 156.482 173.743 152.104 195.195 152.104C206.619 152.104 219.317 153.938 232.952 157.571C246.529 161.204 256.402 164.874 262.297 168.466L263.021 168.909L263.031 192.4H258.385L257.938 191.674C256.422 189.224 252.763 185.698 247.084 181.185C241.344 176.622 233.532 172.382 223.876 168.579C214.246 164.776 203.135 162.849 190.852 162.849C174.519 162.849 160.336 166.734 148.706 174.391C137.04 182.07 128.14 192.533 122.234 205.499C116.278 218.558 113.261 233.163 113.261 248.934C113.261 264.702 116.278 279.219 122.229 292.093C128.129 304.9 137.035 315.286 148.706 322.948C160.336 330.611 174.515 334.502 190.852 334.502C202.749 334.502 213.598 332.913 223.085 329.783C232.505 326.664 240.24 322.856 246.072 318.478C251.853 314.13 255.934 309.844 258.19 305.743L258.622 304.957H263.318ZM497.014 324.727C508.865 316.961 517.951 306.36 524.026 293.188C530.125 279.949 533.224 265.066 533.23 248.94C533.23 232.649 530.136 217.673 524.026 204.43C517.951 191.259 508.865 180.599 497.009 172.747C485.184 164.926 470.692 160.959 453.918 160.959C437.164 160.959 422.656 164.926 410.811 172.752C398.939 180.61 389.858 191.268 383.814 204.43C377.705 217.668 374.605 232.643 374.605 248.94C374.605 265.061 377.699 279.944 383.81 293.188C389.853 306.344 398.929 316.951 410.8 324.727C422.65 332.472 437.164 336.398 453.912 336.398C470.686 336.398 485.179 332.472 497.014 324.727ZM552.897 248.94C552.897 266.403 549.001 282.642 541.324 297.176C533.626 311.761 522.15 323.545 507.221 332.205C492.301 340.863 474.366 345.252 453.912 345.252C433.104 345.252 414.984 340.91 400.059 332.353C385.115 323.761 373.731 312.008 366.208 297.433C358.699 282.899 354.902 266.587 354.902 248.945C354.902 231.133 358.699 214.728 366.208 200.185C373.731 185.605 385.115 173.816 400.049 165.147C414.973 156.492 433.094 152.104 453.907 152.104C474.705 152.104 492.826 156.492 507.744 165.147C522.673 173.805 534.062 185.589 541.591 200.185C549.089 214.724 552.897 231.128 552.897 248.94Z" fill="#4B4036" fill-opacity="0.07"/>
<path d="M263.318 465.524V489L262.594 489.447C256.988 492.916 247.187 496.441 232.644 500.218C218.342 503.939 205.745 505.825 195.195 505.825C173.769 505.825 155.115 501.488 139.764 492.931C124.357 484.334 112.573 472.596 104.741 458.027C96.9088 443.483 92.9414 427.155 92.9414 409.513C92.9414 391.685 96.9138 375.27 104.741 360.717C112.583 346.148 124.372 334.369 139.758 325.704C155.094 317.05 173.743 312.666 195.195 312.666C206.619 312.666 219.317 314.506 232.952 318.134C246.529 321.772 256.402 325.437 262.297 329.034L263.021 329.476L263.031 352.967H258.385L257.938 352.242C256.422 349.791 252.763 346.266 247.084 341.753C241.344 337.19 233.532 332.95 223.876 329.147C214.246 325.344 203.135 323.417 190.852 323.417C174.519 323.417 160.336 327.302 148.706 334.959C137.04 342.637 128.14 353.101 122.234 366.067C116.278 379.125 113.261 393.731 113.261 409.502C113.261 425.27 116.278 439.788 122.229 452.661C128.129 465.468 137.035 475.854 148.706 483.516C160.336 491.179 174.515 495.069 190.852 495.069C202.749 495.069 213.598 493.481 223.085 490.351C232.505 487.232 240.24 483.424 246.072 479.046C251.853 474.698 255.934 470.412 258.19 466.311L258.622 465.524H263.318ZM497.014 485.295C508.865 477.529 517.951 466.928 524.026 453.756C530.125 440.517 533.224 425.635 533.23 409.508C533.23 393.217 530.136 378.241 524.026 364.998C517.951 351.826 508.865 341.167 497.009 333.31C485.184 325.488 470.692 321.521 453.918 321.521C437.164 321.521 422.656 325.488 410.811 333.315C398.939 341.178 389.858 351.836 383.814 364.998C377.705 378.236 374.605 393.211 374.605 409.508C374.605 425.629 377.699 440.512 383.81 453.756C389.853 466.912 398.929 477.519 410.8 485.295C422.65 493.039 437.164 496.965 453.912 496.965C470.686 496.965 485.179 493.039 497.014 485.295ZM552.897 409.508C552.897 426.971 549.001 443.21 541.324 457.743C533.626 472.329 522.15 484.113 507.221 492.772C492.301 501.431 474.366 505.82 453.912 505.82C433.104 505.82 414.984 501.477 400.059 492.921C385.115 484.329 373.731 472.576 366.208 458.001C358.699 443.467 354.902 427.155 354.902 409.513C354.902 391.701 358.699 375.296 366.208 360.753C373.731 346.173 385.115 334.384 400.049 325.715C414.973 317.055 433.094 312.666 453.907 312.666C474.705 312.666 492.826 317.055 507.744 325.715C522.673 334.373 534.062 346.157 541.591 360.753C549.089 375.292 552.897 391.696 552.897 409.508ZM304.212 88.7334V578.56H314.491V88.7334H304.212Z" fill="#4B4036" fill-opacity="0.07"/>
<path d="M0 0V644H643.995V0H0ZM15.4174 15.4174H628.577C628.577 34.7148 628.577 609.285 628.577 628.583H15.4174V15.4174ZM936.448 169.606V326.06H920.965V190.466L845.866 318.955L771.542 191.806V326.06H762.067V169.61H776.476L778.606 173.399L849.236 294.18L922.461 169.606H936.448ZM1063.29 189.087L1021.31 273.101H1100.69L1063.29 189.087ZM1141.23 323.091H1124.28L1104.81 281.096H1025.59C1020.14 281.096 1015.22 284.225 1012.73 289.269L996.605 323.091H985.747L1063.96 161H1067.35L1133.88 306.965L1132.74 307.56L1133.91 307.027L1141.23 323.091ZM1330.29 213.248C1325.61 202.93 1318.53 194.6 1309.22 188.489C1299.91 182.393 1288.62 179.233 1275.64 179.087H1199.02V316.564H1275.4C1288.55 316.564 1299.89 313.477 1309.11 307.387C1318.3 301.296 1325.4 292.924 1330.16 282.517C1334.96 272.069 1337.39 260.391 1337.38 247.827C1337.38 235.276 1335 223.639 1330.29 213.248ZM1352.78 247.827C1352.78 261.865 1349.66 274.968 1343.5 286.793C1337.33 298.601 1328.14 308.166 1316.19 315.22C1304.24 322.267 1289.93 325.919 1273.67 326.06H1183.64V169.606H1273.67C1290.38 169.606 1304.87 173.137 1316.73 180.112C1328.63 187.097 1337.71 196.672 1343.73 208.559C1349.73 220.417 1352.78 233.627 1352.78 247.827ZM1459.06 189.087L1417.08 273.101H1496.46L1459.06 189.087ZM1537 323.091H1520.05L1500.58 281.096H1421.36C1415.91 281.096 1410.98 284.225 1408.5 289.269L1392.37 323.091H1381.52L1459.73 161H1463.13L1529.65 306.965L1528.51 307.56L1529.68 307.027L1537 323.091ZM1753.77 169.606V326.06H1738.3V190.466L1663.19 318.955L1588.87 191.806V326.06H1579.39V169.61H1593.8L1595.93 173.399L1666.56 294.18L1739.79 169.606H1753.77ZM1063.87 462.49V474.435L1063.5 474.666C1060.64 476.429 1055.66 478.224 1048.26 480.149C1040.98 482.037 1034.56 483 1029.2 483C1018.29 483 1008.8 480.792 1000.98 476.439C993.143 472.065 987.146 466.09 983.154 458.675C979.172 451.272 977.153 442.964 977.153 433.98C977.153 424.907 979.172 416.551 983.154 409.147C987.151 401.727 993.148 395.737 1000.98 391.326C1008.79 386.926 1018.28 384.691 1029.2 384.691C1035.01 384.691 1041.47 385.628 1048.41 387.474C1055.32 389.327 1060.35 391.195 1063.34 393.021L1063.72 393.246L1063.72 405.202H1061.36L1061.13 404.836C1060.36 403.591 1058.5 401.791 1055.6 399.494C1052.68 397.17 1048.71 395.015 1043.8 393.078C1038.89 391.143 1033.24 390.164 1026.98 390.164C1018.67 390.164 1011.45 392.142 1005.53 396.035C999.599 399.943 995.068 405.27 992.06 411.873C989.03 418.513 987.491 425.948 987.491 433.974C987.491 442.001 989.03 449.389 992.06 455.945C995.063 462.459 999.594 467.743 1005.53 471.646C1011.45 475.55 1018.67 477.527 1026.98 477.527C1033.04 477.527 1038.56 476.717 1043.39 475.126C1048.18 473.535 1052.12 471.599 1055.09 469.371C1058.03 467.158 1060.1 464.976 1061.26 462.888L1061.48 462.49H1063.87ZM1195.74 472.551C1201.77 468.601 1206.39 463.201 1209.49 456.499C1212.6 449.765 1214.17 442.183 1214.18 433.98C1214.18 425.686 1212.6 418.063 1209.49 411.324C1206.39 404.626 1201.77 399.195 1195.74 395.198C1189.73 391.221 1182.34 389.196 1173.81 389.196C1165.28 389.196 1157.89 391.221 1151.86 395.204C1145.83 399.201 1141.2 404.632 1138.13 411.324C1135.02 418.063 1133.44 425.681 1133.44 433.98C1133.44 442.183 1135.02 449.76 1138.13 456.499C1141.2 463.191 1145.82 468.596 1151.86 472.551C1157.89 476.491 1165.28 478.49 1173.81 478.49C1182.34 478.49 1189.71 476.491 1195.74 472.551ZM1224.18 433.98C1224.18 442.869 1222.2 451.131 1218.29 458.529C1214.38 465.948 1208.53 471.95 1200.93 476.355C1193.34 480.761 1184.21 483 1173.81 483C1163.21 483 1153.99 480.787 1146.4 476.434C1138.8 472.06 1133 466.079 1129.17 458.66C1125.35 451.267 1123.42 442.964 1123.42 433.98C1123.42 424.917 1125.35 416.566 1129.17 409.163C1133 401.743 1138.8 395.742 1146.4 391.336C1153.98 386.926 1163.21 384.691 1173.8 384.691C1184.39 384.691 1193.61 386.926 1201.2 391.336C1208.8 395.737 1214.59 401.733 1218.43 409.163C1222.24 416.566 1224.18 424.912 1224.18 433.98ZM1364.99 462.49V474.435L1364.63 474.666C1361.76 476.429 1356.78 478.224 1349.38 480.149C1342.1 482.037 1335.68 483 1330.31 483C1319.41 483 1309.92 480.792 1302.1 476.439C1294.26 472.065 1288.27 466.09 1284.28 458.675C1280.29 451.272 1278.28 442.964 1278.28 433.98C1278.28 424.907 1280.29 416.551 1284.28 409.147C1288.27 401.727 1294.27 395.737 1302.1 391.326C1309.91 386.926 1319.4 384.691 1330.31 384.691C1336.13 384.691 1342.6 385.628 1349.53 387.474C1356.45 389.327 1361.47 391.195 1364.46 393.021L1364.84 393.246L1364.85 405.202H1362.48L1362.25 404.836C1361.48 403.591 1359.62 401.791 1356.73 399.494C1353.8 397.17 1349.82 395.015 1344.92 393.078C1340.01 391.143 1334.36 390.164 1328.1 390.164C1319.79 390.164 1312.57 392.142 1306.65 396.035C1300.72 399.943 1296.19 405.27 1293.18 411.873C1290.15 418.513 1288.61 425.948 1288.61 433.974C1288.61 442.001 1290.15 449.389 1293.18 455.945C1296.18 462.459 1300.72 467.743 1306.65 471.646C1312.57 475.55 1319.79 477.527 1328.1 477.527C1334.15 477.527 1339.68 476.717 1344.51 475.126C1349.31 473.535 1353.24 471.599 1356.21 469.371C1359.15 467.158 1361.22 464.976 1362.37 462.888L1362.6 462.49H1364.99ZM1496.86 472.551C1502.89 468.601 1507.52 463.201 1510.61 456.499C1513.71 449.765 1515.29 442.183 1515.29 433.98C1515.29 425.686 1513.72 418.063 1510.61 411.324C1507.52 404.626 1502.89 399.195 1496.86 395.198C1490.85 391.221 1483.46 389.196 1474.93 389.196C1466.4 389.196 1459.03 391.221 1452.98 395.204C1446.95 399.201 1442.32 404.632 1439.24 411.324C1436.14 418.063 1434.56 425.681 1434.56 433.98C1434.56 442.183 1436.14 449.76 1439.24 456.499C1442.32 463.191 1446.94 468.596 1452.98 472.551C1459.01 476.491 1466.41 478.49 1474.93 478.49C1483.45 478.49 1490.84 476.491 1496.86 472.551ZM1525.3 433.98C1525.3 442.869 1523.33 451.131 1519.41 458.529C1515.5 465.948 1509.65 471.95 1502.05 476.355C1494.47 480.761 1485.33 483 1474.93 483C1464.33 483 1455.12 480.787 1447.52 476.434C1439.91 472.06 1434.12 466.079 1430.28 458.66C1426.47 451.267 1424.54 442.964 1424.54 433.98C1424.54 424.917 1426.47 416.566 1430.28 409.163C1434.12 401.743 1439.91 395.742 1447.51 391.336C1455.11 386.926 1464.33 384.691 1474.93 384.691C1485.5 384.691 1494.73 386.926 1502.32 391.336C1509.92 395.737 1515.72 401.733 1519.55 409.163C1523.36 416.566 1525.3 424.912 1525.3 433.98Z" fill="#4B4036" fill-opacity="0.07"/>
</g>
<defs>
<clipPath id="clip0_2202_263">
<rect width="644" height="644" fill="white"/>
</clipPath>
</defs>
</svg>
