<svg width="101" height="112" viewBox="0 0 101 112" fill="none" xmlns="http://www.w3.org/2000/svg">
<g clip-path="url(#clip0_1_1730)">
<path fill-rule="evenodd" clip-rule="evenodd" d="M101 0.644531H0V101.645H40.9274L50 111.645L59.0726 101.645H101V0.644531Z" fill="#4B4036"/>
<path d="M42.2057 48.7355V52.055L42.1032 52.1183C41.3105 52.6088 39.9246 53.1073 37.868 53.6414C35.8456 54.1676 34.0644 54.4342 32.5726 54.4342C29.5428 54.4342 26.905 53.8209 24.7343 52.611C22.5557 51.3952 20.8893 49.7354 19.7818 47.6752C18.6743 45.6186 18.1133 43.3098 18.1133 40.8151C18.1133 38.2941 18.675 35.9731 19.7818 33.915C20.8907 31.8548 22.5578 30.1892 24.7335 28.964C26.9021 27.7402 29.5392 27.1211 32.5726 27.1211C34.1879 27.1211 35.9836 27.3805 37.9116 27.8942C39.8316 28.408 41.2276 28.9269 42.0612 29.4349L42.1636 29.4975L42.165 32.8192H41.5081L41.4448 32.7166C41.2305 32.3701 40.7131 31.8715 39.91 31.2335C39.0983 30.5881 37.9937 29.9886 36.6282 29.4509C35.2665 28.9131 33.6953 28.6405 31.9585 28.6405C29.6489 28.6405 27.6434 29.19 25.9987 30.2727C24.3491 31.3585 23.0905 32.838 22.2555 34.6715C21.4133 36.5182 20.9866 38.5834 20.9866 40.8136C20.9866 43.0431 21.4133 45.0961 22.2547 46.9165C23.089 48.7275 24.3485 50.196 25.9987 51.2796C27.6434 52.3631 29.6483 52.9133 31.9585 52.9133C33.6408 52.9133 35.1749 52.6887 36.5163 52.2461C37.8485 51.805 38.9422 51.2665 39.7669 50.6474C40.5844 50.0326 41.1614 49.4265 41.4805 48.8466L41.5415 48.7355H42.2057ZM75.2517 51.5311C76.9274 50.433 78.2122 48.9339 79.0713 47.0713C79.9338 45.1993 80.372 43.0948 80.3728 40.8143C80.3728 38.5107 79.9353 36.3931 79.0713 34.5203C78.2122 32.6579 76.9274 31.1506 75.2509 30.0402C73.5788 28.9342 71.5295 28.3732 69.1576 28.3732C66.7885 28.3732 64.7369 28.9342 63.0619 30.041C61.3833 31.1521 60.0991 32.6592 59.2445 34.5203C58.3806 36.3923 57.9422 38.5099 57.9422 40.8143C57.9422 43.094 58.3798 45.1985 59.2439 47.0713C60.0984 48.9316 61.3818 50.4316 63.0604 51.5311C64.7362 52.6263 66.7885 53.1815 69.1568 53.1815C71.5288 53.1815 73.578 52.6263 75.2517 51.5311ZM83.1539 40.8143C83.1539 43.2837 82.6029 45.5801 81.5173 47.6353C80.4288 49.6976 78.806 51.364 76.6949 52.5885C74.5852 53.8129 72.0491 54.4335 69.1568 54.4335C66.2143 54.4335 63.6521 53.8195 61.5416 52.6094C59.4284 51.3945 57.8187 49.7325 56.7549 47.6716C55.6931 45.6164 55.1561 43.3098 55.1561 40.8151C55.1561 38.2964 55.6931 35.9766 56.7549 33.9201C57.8187 31.8585 59.4284 30.1914 61.5402 28.9655C63.6505 27.7417 66.213 27.1211 69.1561 27.1211C72.097 27.1211 74.6594 27.7417 76.769 28.9655C78.88 30.1899 80.4905 31.8562 81.5551 33.9201C82.6154 35.976 83.1539 38.2956 83.1539 40.8143Z" fill="white"/>
<path d="M42.2057 71.4367V74.7564L42.1032 74.8197C41.3105 75.3102 39.9246 75.8086 37.868 76.3427C35.8456 76.8689 34.0644 77.1356 32.5726 77.1356C29.5428 77.1356 26.905 76.5223 24.7343 75.3123C22.5557 74.0966 20.8893 72.4368 19.7818 70.3766C18.6743 68.32 18.1133 66.0112 18.1133 63.5165C18.1133 60.9955 18.675 58.6744 19.7818 56.6164C20.8907 54.5562 22.5578 52.8906 24.7335 51.6653C26.9021 50.4416 29.5392 49.8217 32.5726 49.8217C34.1879 49.8217 35.9836 50.0819 37.9116 50.5949C39.8316 51.1094 41.2276 51.6276 42.0612 52.1363L42.1636 52.1987L42.165 55.5205H41.5081L41.4448 55.418C41.2305 55.0714 40.7131 54.5729 39.91 53.9348C39.0983 53.2895 37.9937 52.69 36.6282 52.1522C35.2665 51.6145 33.6953 51.3419 31.9585 51.3419C29.6489 51.3419 27.6434 51.8913 25.9987 52.9741C24.3491 54.0598 23.0905 55.5394 22.2555 57.3729C21.4133 59.2194 20.9866 61.2848 20.9866 63.5149C20.9866 65.7445 21.4133 67.7975 22.2547 69.6179C23.089 71.4289 24.3485 72.8974 25.9987 73.981C27.6434 75.0645 29.6483 75.6147 31.9585 75.6147C33.6408 75.6147 35.1749 75.39 36.5163 74.9475C37.8485 74.5064 38.9422 73.9679 39.7669 73.3488C40.5844 72.734 41.1614 72.1279 41.4805 71.548L41.5415 71.4367H42.2057ZM75.2517 74.2325C76.9274 73.1344 78.2122 71.6353 79.0713 69.7727C79.9338 67.9007 80.372 65.7961 80.3728 63.5157C80.3728 61.2121 79.9353 59.0945 79.0713 57.2217C78.2122 55.3591 76.9274 53.852 75.2509 52.7408C73.5788 51.6348 71.5295 51.0739 69.1576 51.0739C66.7885 51.0739 64.7369 51.6348 63.0619 52.7416C61.3833 53.8535 60.0991 55.3606 59.2445 57.2217C58.3806 59.0937 57.9422 61.2113 57.9422 63.5157C57.9422 65.7954 58.3798 67.8999 59.2439 69.7727C60.0984 71.633 61.3818 73.133 63.0604 74.2325C64.7362 75.3275 66.7885 75.8827 69.1568 75.8827C71.5288 75.8827 73.578 75.3275 75.2517 74.2325ZM83.1539 63.5157C83.1539 65.9851 82.6029 68.2815 81.5173 70.3365C80.4288 72.399 78.806 74.0654 76.6949 75.2897C74.5852 76.5143 72.0491 77.1349 69.1568 77.1349C66.2143 77.1349 63.6521 76.5208 61.5416 75.3108C59.4284 74.0959 57.8187 72.4339 56.7549 70.3729C55.6931 68.3177 55.1561 66.0112 55.1561 63.5165C55.1561 60.9977 55.6931 58.678 56.7549 56.6214C57.8187 54.5599 59.4284 52.8928 61.5402 51.6669C63.6505 50.4423 66.213 49.8217 69.1561 49.8217C72.097 49.8217 74.6594 50.4423 76.769 51.6669C78.88 52.8912 80.4905 54.5576 81.5551 56.6214C82.6154 58.6774 83.1539 60.997 83.1539 63.5157ZM47.9883 18.1562V87.4207H49.4417V18.1562H47.9883Z" fill="white"/>
<path d="M4.96875 5.60938V96.6749H96.0336V5.60938H4.96875ZM7.14886 7.78948H93.8535C93.8535 10.5183 93.8535 91.7661 93.8535 94.4948H7.14886V7.78948ZM137.388 29.5927V51.7163H135.199V32.5425L124.579 50.7116L114.07 32.7319V51.7163H112.73V29.5933H114.767L115.068 30.1291L125.056 47.2083L135.41 29.5927H137.388ZM155.325 32.3474L149.388 44.2276H160.613L155.325 32.3474ZM166.346 51.2964H163.95L161.196 45.3581H149.993C149.223 45.3581 148.526 45.8006 148.175 46.5138L145.895 51.2964H144.359L155.419 28.3758H155.899L165.306 49.0161L165.146 49.1003L165.311 49.0249L166.346 51.2964ZM193.08 35.7639C192.418 34.3049 191.416 33.127 190.101 32.2629C188.785 31.4008 187.188 30.954 185.351 30.9333H174.518V50.3734H185.318C187.177 50.3734 188.782 49.9369 190.085 49.0757C191.385 48.2146 192.388 47.0307 193.062 45.5591C193.74 44.0815 194.085 42.4302 194.083 40.6537C194.083 38.8788 193.746 37.2333 193.08 35.7639ZM196.26 40.6537C196.26 42.6388 195.819 44.4915 194.948 46.1636C194.076 47.8334 192.776 49.1859 191.086 50.1834C189.396 51.18 187.373 51.6963 185.074 51.7163H172.343V29.5927H185.074C187.437 29.5927 189.486 30.0921 191.163 31.0783C192.845 32.066 194.129 33.42 194.98 35.101C195.829 36.7776 196.26 38.6457 196.26 40.6537ZM211.288 32.3474L205.352 44.2276H216.578L211.288 32.3474ZM222.31 51.2964H219.914L217.161 45.3581H205.958C205.187 45.3581 204.49 45.8006 204.14 46.5138L201.859 51.2964H200.324L211.384 28.3758H211.864L221.271 49.0161L221.11 49.1003L221.275 49.0249L222.31 51.2964ZM252.963 29.5927V51.7163H250.774V32.5425L240.155 50.7116L229.644 32.7319V51.7163H228.304V29.5933H230.342L230.643 30.1291L240.631 47.2083L250.985 29.5927H252.963ZM155.406 71.0083V72.6974L155.354 72.73C154.95 72.9794 154.245 73.2332 153.199 73.5054C152.169 73.7724 151.262 73.9086 150.504 73.9086C148.961 73.9086 147.619 73.5964 146.513 72.9807C145.405 72.3623 144.557 71.5173 143.993 70.4689C143.43 69.4221 143.144 68.2472 143.144 66.9768C143.144 65.6938 143.43 64.5123 143.993 63.4653C144.558 62.4161 145.406 61.569 146.513 60.9452C147.618 60.3231 148.96 60.0071 150.504 60.0071C151.326 60.0071 152.239 60.1396 153.22 60.4007C154.198 60.6626 154.908 60.9267 155.332 61.185L155.385 61.2167L155.385 62.9074H155.051L155.019 62.8556C154.91 62.6796 154.647 62.425 154.237 62.1002C153.824 61.7716 153.263 61.4669 152.568 61.1931C151.875 60.9194 151.075 60.781 150.191 60.781C149.015 60.781 147.994 61.0607 147.157 61.6112C146.318 62.1638 145.678 62.9171 145.252 63.8508C144.824 64.7897 144.606 65.8411 144.606 66.976C144.606 68.111 144.824 69.1557 145.252 70.0827C145.677 71.0039 146.318 71.7511 147.157 72.3031C147.994 72.8551 149.015 73.1347 150.191 73.1347C151.047 73.1347 151.828 73.0201 152.51 72.7951C153.188 72.5702 153.745 72.2964 154.165 71.9813C154.581 71.6683 154.874 71.3598 155.037 71.0646L155.068 71.0083H155.406ZM174.053 72.431C174.906 71.8725 175.56 71.1089 175.997 70.1612C176.438 69.209 176.659 68.1368 176.661 66.9768C176.661 65.804 176.438 64.7261 175.997 63.7731C175.56 62.826 174.906 62.058 174.053 61.4928C173.203 60.9305 172.159 60.6441 170.952 60.6441C169.746 60.6441 168.702 60.9305 167.849 61.4936C166.996 62.0588 166.342 62.8268 165.907 63.7731C165.467 64.7261 165.244 65.8033 165.244 66.9768C165.244 68.1368 165.467 69.2082 165.907 70.1612C166.342 71.1074 166.994 71.8717 167.849 72.431C168.702 72.9882 169.746 73.2708 170.952 73.2708C172.159 73.2708 173.202 72.9882 174.053 72.431ZM178.075 66.9768C178.075 68.2338 177.796 69.402 177.242 70.4482C176.69 71.4973 175.862 72.346 174.788 72.9689C173.715 73.5919 172.423 73.9086 170.952 73.9086C169.454 73.9086 168.151 73.5956 167.076 72.9801C166.002 72.3615 165.182 71.5158 164.64 70.4667C164.1 69.4213 163.827 68.2472 163.827 66.9768C163.827 65.6952 164.1 64.5144 164.64 63.4676C165.182 62.4184 166.002 61.5698 167.076 60.9467C168.149 60.3231 169.454 60.0071 170.951 60.0071C172.449 60.0071 173.753 60.3231 174.826 60.9467C175.9 61.569 176.72 62.4168 177.262 63.4676C177.801 64.5144 178.075 65.6946 178.075 66.9768ZM197.987 71.0083V72.6974L197.935 72.73C197.53 72.9794 196.826 73.2332 195.78 73.5054C194.749 73.7724 193.842 73.9086 193.083 73.9086C191.541 73.9086 190.199 73.5964 189.094 72.9807C187.985 72.3623 187.138 71.5173 186.573 70.4689C186.01 69.4221 185.725 68.2472 185.725 66.9768C185.725 65.6938 186.01 64.5123 186.573 63.4653C187.138 62.4161 187.986 61.569 189.094 60.9452C190.198 60.3231 191.539 60.0071 193.083 60.0071C193.906 60.0071 194.821 60.1396 195.801 60.4007C196.779 60.6626 197.489 60.9267 197.912 61.185L197.966 61.2167L197.967 62.9074H197.632L197.6 62.8556C197.49 62.6796 197.228 62.425 196.818 62.1002C196.404 61.7716 195.842 61.4669 195.149 61.1931C194.455 60.9194 193.655 60.781 192.77 60.781C191.596 60.781 190.574 61.0607 189.738 61.6112C188.898 62.1638 188.258 62.9171 187.833 63.8508C187.403 64.7897 187.186 65.8411 187.186 66.976C187.186 68.111 187.403 69.1557 187.833 70.0827C188.256 71.0039 188.898 71.7511 189.738 72.3031C190.574 72.8551 191.596 73.1347 192.77 73.1347C193.626 73.1347 194.408 73.0201 195.091 72.7951C195.769 72.5702 196.325 72.2964 196.745 71.9813C197.161 71.6683 197.454 71.3598 197.616 71.0646L197.648 71.0083H197.987ZM216.634 72.431C217.487 71.8725 218.141 71.1089 218.578 70.1612C219.017 69.209 219.24 68.1368 219.24 66.9768C219.24 65.804 219.018 64.7261 218.578 63.7731C218.141 62.826 217.487 62.058 216.634 61.4928C215.784 60.9305 214.74 60.6441 213.533 60.6441C212.327 60.6441 211.284 60.9305 210.429 61.4936C209.576 62.0588 208.922 62.8268 208.487 63.7731C208.048 64.7261 207.825 65.8033 207.825 66.9768C207.825 68.1368 208.048 69.2082 208.487 70.1612C208.922 71.1074 209.575 71.8717 210.429 72.431C211.282 72.9882 212.328 73.2708 213.533 73.2708C214.738 73.2708 215.783 72.9882 216.634 72.431ZM220.656 66.9768C220.656 68.2338 220.377 69.402 219.823 70.4482C219.27 71.4973 218.443 72.346 217.369 72.9689C216.296 73.5919 215.004 73.9086 213.533 73.9086C212.034 73.9086 210.731 73.5956 209.657 72.9801C208.581 72.3615 207.763 71.5158 207.219 70.4667C206.681 69.4213 206.407 68.2472 206.407 66.9768C206.407 65.6952 206.681 64.5144 207.219 63.4676C207.763 62.4184 208.581 61.5698 209.655 60.9467C210.73 60.3231 212.034 60.0071 213.533 60.0071C215.028 60.0071 216.333 60.3231 217.407 60.9467C218.481 61.569 219.301 62.4168 219.843 63.4676C220.381 64.5144 220.656 65.6946 220.656 66.9768Z" fill="white"/>
</g>
<defs>
<clipPath id="clip0_1_1730">
<rect width="101" height="111" fill="white" transform="translate(0 0.644531)"/>
</clipPath>
</defs>
</svg>
