<svg width="89" height="89" viewBox="0 0 89 89" fill="none" xmlns="http://www.w3.org/2000/svg">
<path d="M44.5011 6.96094C30.4053 6.96094 18.9375 18.4288 18.9375 32.5246C18.9375 46.6205 30.4053 58.0882 44.5011 58.0882C58.5969 58.0882 70.0647 46.6204 70.0647 32.5246C70.0647 18.4288 58.5969 6.96094 44.5011 6.96094ZM44.5011 56.8714C31.0762 56.8714 20.1543 45.9495 20.1543 32.5246C20.1543 19.0997 31.0762 8.17773 44.5011 8.17773C57.926 8.17773 68.8479 19.0997 68.8479 32.5246C68.8479 45.9495 57.926 56.8714 44.5011 56.8714Z" fill="#ACA095"/>
<path d="M74.4952 38.1298C75.8332 36.4106 77.2167 34.6329 77.2167 32.5243C77.2167 30.4157 75.8332 28.6378 74.4952 26.9187C73.5755 25.7369 72.7068 24.6207 72.3362 23.4791C71.9424 22.2665 71.9861 20.7387 72.0285 19.2611C72.0896 17.1255 72.1527 14.9174 70.9691 13.2909C69.7717 11.6455 67.6397 11.0237 65.5779 10.4221C64.1041 9.99223 62.7121 9.58618 61.6986 8.84851C60.7035 8.12434 59.898 6.93649 59.0453 5.67895C57.8314 3.88889 56.5762 2.03789 54.6114 1.39987C52.7354 0.79088 50.6761 1.526 48.6846 2.23685C47.2717 2.74118 45.8107 3.26267 44.499 3.26267C43.1871 3.26267 41.7261 2.74118 40.3133 2.23685C38.3216 1.52592 36.2622 0.790795 34.3865 1.39987C32.4217 2.03789 31.1665 3.88889 29.9527 5.67895C29.0999 6.93649 28.2944 8.12434 27.2993 8.84851C26.2858 9.58618 24.8938 9.99223 23.42 10.4221C21.3583 11.0237 19.2262 11.6455 18.0288 13.2909C16.8452 14.9174 16.9083 17.1255 16.9694 19.2611C17.0118 20.7387 17.0555 22.2665 16.6618 23.4791C16.2911 24.6207 15.4225 25.7369 14.5027 26.9187C13.1647 28.6378 11.7812 30.4157 11.7812 32.5243C11.7812 34.6329 13.1647 36.4106 14.5027 38.1298C15.4225 39.3116 16.2911 40.4278 16.6618 41.5694C17.0555 42.7819 17.0118 44.3098 16.9694 45.7873C16.9083 47.9229 16.8452 50.1311 18.0288 51.7576C19.2262 53.4029 21.3583 54.0248 23.42 54.6263C24.6091 54.9732 25.7411 55.3076 26.6679 55.8101L15.6544 78.4372C15.5558 78.6398 15.5773 78.8804 15.7102 79.0623C15.8431 79.2442 16.0654 79.3382 16.2887 79.3056L24.1708 78.1635C24.5451 78.1089 24.9071 78.2856 25.0953 78.6134L29.0586 85.5213C29.1672 85.7108 29.3688 85.827 29.5862 85.827C29.593 85.827 29.6 85.8269 29.6069 85.8266C29.8321 85.819 30.0346 85.6874 30.1333 85.4848L41.3462 62.4497C42.4255 62.0853 43.5051 61.7858 44.499 61.7858C45.4929 61.7858 46.5724 62.0853 47.6517 62.4497L58.8647 85.4848C58.9633 85.6874 59.1658 85.819 59.3911 85.8266C59.3979 85.8269 59.4049 85.827 59.4118 85.827C59.6291 85.827 59.8307 85.7108 59.9394 85.5213L63.9028 78.6133C64.0909 78.2855 64.4536 78.1088 64.8279 78.1636L72.7092 79.3056C72.9326 79.3382 73.1549 79.2442 73.2877 79.0623C73.4206 78.8804 73.4421 78.6398 73.3435 78.4372L63.5071 58.2283C63.3601 57.9261 62.9959 57.8005 62.6938 57.9476C62.3916 58.0946 62.2659 58.4588 62.413 58.7609L71.7465 77.9366L65.003 76.9594C64.1315 76.8325 63.2856 77.2438 62.8473 78.0079L59.4558 83.9191L49.2848 63.0244C49.9275 63.2497 50.5745 63.4631 51.2176 63.6199L59.0594 79.7311C59.158 79.9337 59.3605 80.0653 59.5858 80.0729C59.5926 80.0732 59.5996 80.0732 59.6065 80.0732C59.8239 80.0732 60.0254 79.957 60.1341 79.7676L62.0806 76.3751C62.5106 75.6277 63.3383 75.224 64.1898 75.3475L68.0592 75.909C68.282 75.9418 68.5048 75.8478 68.6378 75.6658C68.7707 75.4838 68.7922 75.2432 68.6936 75.0406L60.2439 57.6807C60.6991 57.0965 61.1723 56.583 61.6986 56.2C62.7121 55.4623 64.1041 55.0562 65.5779 54.6263C67.6397 54.0248 69.7717 53.4029 70.9691 51.7576C72.1527 50.1311 72.0896 47.9229 72.0285 45.7873C71.9861 44.3098 71.9424 42.7819 72.3362 41.5694C72.7068 40.4278 73.5755 39.3116 74.4952 38.1298ZM29.5421 83.9191L26.1507 78.0079C25.7122 77.2438 24.8662 76.8323 23.9956 76.9594L17.2514 77.9366L27.6813 56.5083C28.5063 57.2372 29.2117 58.2768 29.9527 59.3695C31.1665 61.1596 32.4217 63.0106 34.3865 63.6486C35.0108 63.8512 35.6556 63.9028 36.3112 63.8582L35.0543 66.4405C34.7977 65.4246 33.9373 64.59 32.7753 64.4822C32.7078 64.4759 32.64 64.47 32.5722 64.4645C29.9572 64.2523 27.4458 65.2016 25.6011 66.9388L28.196 61.6077C28.343 61.3056 28.2173 60.9414 27.9152 60.7944C27.6134 60.6474 27.2491 60.7731 27.1019 61.0752L20.3043 75.0406C20.2057 75.2432 20.2272 75.4838 20.3601 75.6658C20.493 75.8477 20.7157 75.9412 20.9387 75.909L24.8013 75.3485C24.9147 75.3334 25.0152 75.326 25.1085 75.326C25.8528 75.326 26.5458 75.7278 26.917 76.3745L28.8639 79.7676C28.9726 79.957 29.1742 80.0732 29.3915 80.0732C29.3984 80.0732 29.4054 80.0732 29.4122 80.0729C29.6375 80.0653 29.84 79.9337 29.9386 79.7311L37.7809 63.6189C38.4239 63.4621 39.0707 63.2491 39.7133 63.0242L29.5421 83.9191ZM61.6954 63.4431C60.2331 62.6448 58.2524 63.0001 57.2602 64.5974C57.2349 64.6382 57.2097 64.6791 57.1848 64.7202C56.1265 66.4633 55.7064 68.48 55.8997 70.4592L52.6873 63.859C52.8279 63.8686 52.9683 63.875 53.1079 63.875C53.6186 63.875 54.1213 63.8077 54.6115 63.6486C56.5762 63.0106 57.8314 61.1596 59.0453 59.3695C59.1759 59.1769 59.3054 58.9863 59.4346 58.7984L61.6954 63.4431ZM71.1788 41.1935C70.7201 42.6063 70.7669 44.2412 70.8121 45.8222C70.87 47.8425 70.9246 49.7508 69.9852 51.0416C69.0322 52.3511 67.1888 52.8889 65.2371 53.4582C63.7281 53.8984 62.1676 54.3536 60.9826 55.2161C59.8157 56.0653 58.912 57.3979 58.0382 58.6866C56.889 60.3814 55.8034 61.9822 54.2356 62.4912C52.7544 62.9725 50.9763 62.3377 49.0938 61.6656C47.5833 61.1265 46.0215 60.569 44.499 60.569C42.9765 60.569 41.4147 61.1265 39.9042 61.6656C38.0217 62.3375 36.2435 62.9723 34.7624 62.4912C33.1945 61.9822 32.1089 60.3814 30.9597 58.6866C30.0858 57.3979 29.1822 56.0653 28.0153 55.2161C26.8303 54.3536 25.2698 53.8984 23.7608 53.4582C21.8091 52.8889 19.9657 52.3511 19.0127 51.0416C18.0733 49.7508 18.1279 47.8425 18.1858 45.8222C18.231 44.2412 18.2778 42.6063 17.8191 41.1935C17.3825 39.8489 16.4067 38.5951 15.4629 37.3825C14.2512 35.8253 12.998 34.2152 12.998 32.5243C12.998 30.8334 14.2512 29.2232 15.463 27.666C16.4067 26.4534 17.3825 25.1995 17.8191 23.8549C18.2778 22.4422 18.231 20.8073 18.1858 19.2263C18.1279 17.2059 18.0733 15.2976 19.0127 14.0069C19.9657 12.6973 21.8091 12.1596 23.7608 11.5903C25.2698 11.15 26.8303 10.6948 28.0153 9.83241C29.1822 8.98313 30.0859 7.65056 30.9597 6.36187C32.1089 4.66705 33.1945 3.06627 34.7623 2.55726C35.1244 2.43962 35.5042 2.38878 35.899 2.38878C37.1192 2.38878 38.4818 2.87512 39.9041 3.38286C41.4146 3.92199 42.9764 4.47947 44.499 4.47947C46.0214 4.47947 47.5832 3.92199 49.0937 3.38286C50.9761 2.71088 52.7542 2.07609 54.2355 2.55726C55.8034 3.06626 56.889 4.66705 58.0382 6.36187C58.9121 7.65056 59.8157 8.98313 60.9826 9.83241C62.1676 10.6948 63.7281 11.15 65.2371 11.5903C67.1888 12.1596 69.0322 12.6973 69.9852 14.0069C70.9246 15.2976 70.87 17.2059 70.8121 19.2263C70.7669 20.8073 70.7201 22.4422 71.1788 23.8549C71.6154 25.1995 72.5912 26.4534 73.5349 27.666C74.7467 29.2232 75.9999 30.8334 75.9999 32.5243C75.9999 34.2152 74.7467 35.8253 73.535 37.3825C72.5912 38.5951 71.6154 39.8489 71.1788 41.1935Z" fill="#ACA095"/>
<path d="M25.1446 29.2899L27.5723 28.5375C27.9734 28.4132 28.3999 28.6379 28.5242 29.0389L31.1882 37.6339C31.3125 38.0349 31.0878 38.4615 30.6867 38.5858L28.2591 39.3382C27.8581 39.4625 27.4315 39.2378 27.3072 38.8368L24.6432 30.2418C24.5189 29.8408 24.7436 29.4142 25.1446 29.2899Z" fill="#DBD1C8"/>
<path d="M48.9914 29.9691L50.5483 29.9736C50.7455 29.9742 50.938 29.914 51.0997 29.8011L56.6267 25.9432C56.0769 25.3963 55.1957 25.3032 54.5378 25.7622L48.905 29.693C48.7835 29.7778 48.8432 29.9686 48.9914 29.9691Z" fill="#DBD1C8"/>
<path d="M58.6285 29.9745H60.7194C60.9186 29.9745 61.1161 29.9897 61.3104 30.0198C61.4624 30.0433 61.6173 30.0032 61.7435 29.9152L63.4625 28.716C63.8786 28.4257 64.0393 27.8658 63.7979 27.4196C63.6512 27.1485 63.3978 26.9666 63.1005 26.9136C62.8406 26.8671 62.5786 26.925 62.3624 27.0759L58.5529 29.7339C58.4468 29.8079 58.4992 29.9745 58.6285 29.9745Z" fill="#DBD1C8"/>
<path d="M60.7225 31.1918H48.338C46.9419 31.1918 45.5695 30.8304 44.3544 30.1427L41.6381 28.6054C40.1709 27.7751 38.4327 27.5649 36.8099 28.0217L35.1951 28.4762C34.5174 28.667 33.8173 28.763 33.1132 28.7582L30.5996 28.7453C30.1548 28.743 29.8359 29.1733 29.9674 29.5981L32.2003 36.8104C32.2857 37.086 32.5406 37.2739 32.8291 37.2739H36.6217C37.4987 37.2739 38.3731 37.3683 39.2299 37.5554L44.4069 38.6858C46.0445 39.0433 47.7424 38.7736 49.1887 37.9264L53.2858 35.5254C54.9215 34.5668 56.7849 33.9759 58.6744 33.8166L62.7373 33.4742C62.8717 33.4629 63.0014 33.4035 63.0851 33.2978C63.1959 33.1582 63.2203 32.979 63.1541 32.8186C62.7461 31.8304 61.7917 31.1918 60.7225 31.1918Z" fill="#DBD1C8"/>
<path d="M53.4333 29.9741H55.7921C55.9793 29.9741 56.162 29.9167 56.3156 29.8095L61.2875 26.3407C60.9825 26.0175 60.5837 25.8012 60.1382 25.7218C59.5888 25.6236 59.0343 25.7458 58.5767 26.0652L53.3509 29.712C53.2354 29.7927 53.2924 29.9741 53.4333 29.9741Z" fill="#DBD1C8"/>
</svg>
