<svg width="62" height="18" viewBox="0 0 62 18" fill="none" xmlns="http://www.w3.org/2000/svg">
<g clip-path="url(#clip0_1_504)">
<path fill-rule="evenodd" clip-rule="evenodd" d="M59.2751 15.6744C60.4949 15.6744 61.3586 15.4535 62.0019 14.9782V12.8215C61.3409 13.28 60.545 13.569 59.4275 13.569C57.5476 13.569 56.7675 12.1085 56.7675 9.79895C56.7675 7.3711 57.7158 6.13048 59.4442 6.13048C60.4604 6.13048 61.4599 6.48749 61.9852 6.8267V4.5852C61.4265 4.2795 60.4604 4.05859 59.1393 4.05859C55.768 4.05859 54.0239 6.48644 54.0239 9.88271C54.0406 13.6014 55.7513 15.6733 59.2751 15.6733V15.6744ZM42.7925 14.6892V12.5325C41.979 13.0926 40.5899 13.5857 39.32 13.5857C37.3889 13.5857 36.6599 12.6686 36.5419 10.8009H42.9116V9.40845C42.9116 5.52012 41.2009 4.05964 38.5753 4.05964C35.3565 4.05964 33.8317 6.52204 33.8317 9.90155C33.8317 13.7899 35.7461 15.6754 39.0996 15.6754C40.7769 15.6754 42.0134 15.2169 42.7925 14.6902V14.6892ZM18.6192 4.26275V8.67768H15.0954V4.26275H12.4531V15.4535H15.0954V10.7831H18.6192V15.4535H21.2615V4.26275H18.6192ZM33.1706 13.3481H32.0019V4.26275H24.3111V5.21337C24.3111 7.94692 24.1419 11.4793 23.2103 13.347H22.3633V17.9996H24.803V15.4524H30.7153V17.9996H33.155V13.347H33.1717L33.1706 13.3481ZM51.2113 15.4535L47.3147 9.95181V15.4535H44.6724V4.26275H47.3147V9.4252L51.0411 4.26275H53.7012L49.9748 9.4252L54.2098 15.4535H51.2113ZM38.5064 6.13048C39.8108 6.13048 40.2171 7.21721 40.2171 8.62638V8.84729H36.5408C36.6087 7.06435 37.2521 6.13048 38.5064 6.13048ZM29.3586 13.3481H25.6322C26.3602 11.6667 26.5638 8.61068 26.5638 6.67489V6.33568H29.3586V13.3491V13.3481Z" fill="#4B4036"/>
<path fill-rule="evenodd" clip-rule="evenodd" d="M10.2486 15.4528H7.55509V2.08864H6.35196C4.14935 2.08864 2.99739 3.19211 2.99739 4.83999C2.99739 6.70773 3.79321 7.57355 5.43708 8.67807L6.79269 9.59518L2.89608 15.4538H0L3.50705 10.2233C1.49034 8.77962 0.356136 7.36939 0.356136 4.99285C0.356136 2.02059 2.42193 0 6.33525 0H10.2319V15.4528H10.2486Z" fill="#C73511"/>
</g>
<defs>
<clipPath id="clip0_1_504">
<rect width="62" height="18" fill="white"/>
</clipPath>
</defs>
</svg>
