<svg aria-hidden="true" xmlns="http://www.w3.org/2000/svg" xmlns:xlink="http://www.w3.org/1999/xlink"><symbol viewBox="0 0 24 14" fill="none" id="icon-arrow" xmlns="http://www.w3.org/2000/svg">
<path d="M16 14C16 13.258 16.733 12.15 17.475 11.22C18.429 10.02 19.569 8.973 20.876 8.174C21.856 7.575 23.044 7 24 7M24 7C23.044 7 21.855 6.425 20.876 5.826C19.569 5.026 18.429 3.979 17.475 2.781C16.733 1.85 16 0.740002 16 1.66893e-06M24 7L0 7" stroke="currentColor"/>
</symbol><symbol viewBox="0 0 32 22" fill="none" id="icon-burger" xmlns="http://www.w3.org/2000/svg">
<rect width="7" height="2" fill="currentColor"/>
<rect x="25" y="20" width="7" height="2" fill="currentColor"/>
<rect x="10" width="22" height="2" fill="currentColor"/>
<rect y="20" width="22" height="2" fill="currentColor"/>
<rect y="10" width="32" height="2" fill="currentColor"/>
</symbol><symbol viewBox="0 0 24 24" fill="none" id="icon-check" xmlns="http://www.w3.org/2000/svg">
<path d="M5 12L10 17L20 7" stroke="currentColor" stroke-width="2" stroke-linecap="round" stroke-linejoin="round"/>
</symbol><symbol viewBox="0 0 26 26" fill="none" id="icon-close" xmlns="http://www.w3.org/2000/svg">
<rect width="32" height="2" transform="matrix(-0.707107 -0.707107 -0.707107 0.707107 25.0182 23.606)" fill="currentColor"/>
<rect x="0.979126" y="23.6064" width="32" height="2" transform="rotate(-45 0.979126 23.6064)" fill="currentColor"/>
</symbol><symbol viewBox="0 0 23 23" fill="none" id="icon-close-bold" xmlns="http://www.w3.org/2000/svg">
<path d="M0.600778 0.601562C0.905511 0.296922 1.31876 0.125784 1.74965 0.125784C2.18054 0.125784 2.5938 0.296922 2.89853 0.601562L11.4997 9.20269L20.1008 0.601562C20.2507 0.446358 20.43 0.322562 20.6282 0.237397C20.8265 0.152233 21.0397 0.107405 21.2555 0.10553C21.4713 0.103655 21.6852 0.14477 21.885 0.226477C22.0847 0.308183 22.2661 0.428844 22.4187 0.58142C22.5712 0.733996 22.6919 0.91543 22.7736 1.11514C22.8553 1.31484 22.8964 1.52882 22.8946 1.74459C22.8927 1.96036 22.8479 2.17359 22.7627 2.37184C22.6775 2.5701 22.5537 2.74941 22.3985 2.89931L13.7974 11.5004L22.3985 20.1016C22.6945 20.408 22.8583 20.8185 22.8546 21.2446C22.8509 21.6707 22.68 22.0782 22.3787 22.3795C22.0774 22.6808 21.6699 22.8517 21.2438 22.8554C20.8177 22.8591 20.4073 22.6953 20.1008 22.3993L11.4997 13.7982L2.89853 22.3993C2.59205 22.6953 2.18157 22.8591 1.7555 22.8554C1.32943 22.8517 0.921861 22.6808 0.620573 22.3795C0.319285 22.0782 0.148385 21.6707 0.144682 21.2446C0.14098 20.8185 0.304771 20.408 0.600778 20.1016L9.2019 11.5004L0.600778 2.89931C0.296138 2.59458 0.125 2.18133 0.125 1.75044C0.125 1.31955 0.296138 0.906295 0.600778 0.601562Z" fill="currentColor"/>
</symbol><symbol viewBox="0 0 69 29" fill="none" id="icon-logo-2g" xmlns="http://www.w3.org/2000/svg">
<path d="M29.4429 14.5C29.4429 12.7168 29.1006 11.0155 28.5018 9.43654C28.3422 14.6303 22.9826 18.6529 19.8357 21.315H27.7133C28.8149 19.2817 29.4429 16.9639 29.4429 14.5ZM23.7479 3.06274C21.2547 1.14919 18.1275 -1.39083e-07 14.7206 -1.39083e-07C6.59073 -1.39083e-07 0 6.4918 0 14.5C0 22.5082 6.59073 29 14.7206 29C18.4449 29 21.8355 27.6289 24.4265 25.3834H13.7683L13.7365 22.2995C20.1583 16.801 24.0954 13.0822 24.0954 9.49025C24.0954 8.15526 23.5789 6.47067 21.2564 6.47067C19.417 6.47067 17.6419 7.52035 17.9636 11.9057H14.2213C13.2844 6.82115 16.0925 2.7827 21.4495 2.7827C22.2782 2.7827 23.0478 2.88133 23.7479 3.06274Z" fill="currentColor"/>
<path d="M43.0983 10.0227H46.5807C46.6991 7.41344 45.8069 3.27989 40.0629 3.27989C35.8367 3.27989 32.7695 5.772 32.7695 10.9605C32.7695 11.6641 32.7996 15.2992 32.7996 17.5571C32.7996 23.185 36.759 24.417 40.0921 24.417C42.0868 24.417 44.9729 23.9767 46.313 22.5404V13.5697H39.7652V16.8244H42.6822V20.781C40.479 21.5136 36.4613 21.8078 36.4613 16.8244V10.9605C36.4613 7.47244 38.0982 6.26954 39.9128 6.26954C41.7891 6.26954 43.0983 7.20826 43.0983 10.0227ZM68.9988 18.7301C69.1489 10.6972 59.8034 13.3646 59.8926 8.87876C59.9218 7.29632 60.9642 6.26954 62.6603 6.26954C64.4749 6.26954 65.5473 7.32538 65.5164 10.0817H68.9396C69.0297 7.58868 68.4351 3.33801 62.7804 3.33801C59.268 3.33801 56.3802 5.03934 56.321 8.82064C56.1717 16.5303 65.5765 14.01 65.4272 18.6702C65.368 20.5758 63.9695 21.4256 62.3918 21.4256C60.5472 21.4256 59.0587 20.3706 59.3564 17.2049H55.9031C55.5171 21.3965 57.3925 24.3879 62.3626 24.3879C66.5588 24.3879 68.9396 22.1001 68.9988 18.7301ZM53.277 24.1229H49.7646V3.60219H53.277V24.1229ZM53.277 24.1229H49.7646V3.60219H53.277V24.1229Z" fill="currentColor"/>
</symbol><symbol viewBox="0 0 99 29" fill="none" id="icon-logo-yandex" xmlns="http://www.w3.org/2000/svg">
<g clip-path="url(#gclip0_2053_1379)">
<path fill-rule="evenodd" clip-rule="evenodd" d="M94.6469 25.2524C96.5947 25.2524 97.9738 24.8965 99.0011 24.1307V20.656C97.9455 21.3948 96.6747 21.8604 94.8903 21.8604C91.8886 21.8604 90.6428 19.5074 90.6428 15.7864C90.6428 11.8749 92.1571 9.87613 94.917 9.87613C96.5396 9.87613 98.1356 10.4513 98.9744 10.9978V7.38651C98.0822 6.89399 96.5396 6.53809 94.4301 6.53809C89.0469 6.53809 86.2619 10.4496 86.2619 15.9214C86.2886 21.9127 89.0202 25.2507 94.6469 25.2507V25.2524ZM68.328 23.6652V20.1905C67.0289 21.0929 64.811 21.8874 62.7831 21.8874C59.6996 21.8874 58.5356 20.4098 58.3471 17.4006H68.5181V15.1573C68.5181 8.89277 65.7865 6.53977 61.5941 6.53977C56.4544 6.53977 54.0196 10.507 54.0196 15.9517C54.0196 22.2163 57.0764 25.2541 62.4312 25.2541C65.1095 25.2541 67.084 24.5153 68.328 23.6669V23.6652ZM29.7286 6.867V13.98H24.102V6.867H19.8828V24.8965H24.102V17.372H29.7286V24.8965H33.9478V6.867H29.7286ZM52.964 21.5045H51.0979V6.867H38.8173V8.39855C38.8173 12.8026 38.5471 18.4937 37.0596 21.5028H35.7071V28.9986H39.6028V24.8948H49.0433V28.9986H52.939V21.5028H52.9656L52.964 21.5045ZM81.7709 24.8965L75.5489 16.0327V24.8965H71.3298V6.867H75.5489V15.1843L81.4991 6.867H85.7466L79.7964 15.1843L86.5588 24.8965H81.7709ZM61.484 9.87613C63.5669 9.87613 64.2156 11.627 64.2156 13.8973V14.2532H58.3455C58.4539 11.3807 59.4811 9.87613 61.484 9.87613ZM46.8771 21.5045H40.9269C42.0892 18.7956 42.4144 13.872 42.4144 10.7532V10.2067H46.8771V21.5062V21.5045Z" fill="currentColor"/>
<path fill-rule="evenodd" clip-rule="evenodd" d="M16.3646 24.8962H12.0638V3.36503H10.1426C6.62557 3.36503 4.78615 5.14285 4.78615 7.79777C4.78615 10.8069 6.0569 12.2018 8.68178 13.9813L10.8464 15.4589L4.62439 24.8979H0L5.59997 16.4709C2.37974 14.1449 0.568668 11.8729 0.568668 8.04403C0.568668 3.25539 3.86728 0 10.116 0H16.338V24.8962H16.3646Z" fill="currentColor"/>
</g>
<defs>
<clipPath id="gclip0_2053_1379">
<rect width="99" height="29" fill="currentColor"/>
</clipPath>
</defs>
</symbol><symbol viewBox="0 0 34 34" fill="none" id="icon-send" xmlns="http://www.w3.org/2000/svg">
<path d="M29.8419 7.15552V19.7671C29.8419 19.9901 29.661 20.171 29.438 20.171C29.2151 20.171 29.0342 19.9901 29.0342 19.7671V7.15552C29.0342 6.75482 28.8952 6.37033 28.6464 6.06334L17.1463 14.2514C16.5485 14.6779 15.8441 14.8911 15.1397 14.8911C14.4353 14.8911 13.7341 14.6779 13.1331 14.2514L1.63633 6.06334C1.38751 6.37352 1.24533 6.75482 1.24533 7.15552V22.0063C1.24533 22.9692 2.03052 23.7512 2.99022 23.7512H21.6475C21.8704 23.7512 22.0513 23.9322 22.0513 24.1551C22.0513 24.378 21.8704 24.559 21.6475 24.559H2.99022C1.5846 24.559 0.4375 23.4152 0.4375 22.0063V7.15552C0.4375 5.85655 1.42948 4.74823 2.7317 4.61575C2.95144 4.5931 7.80474 4.60605 27.2893 4.59961C28.6948 4.59954 29.8419 5.75315 29.8419 7.15552Z" fill="currentColor"/>
<path d="M33.5565 24.1544C33.5565 24.5647 33.3239 24.9202 32.949 25.085L23.2843 29.3115C23.1518 29.3697 23.0129 29.3988 22.8739 29.3988C22.6154 29.3988 22.3601 29.2954 22.1663 29.1047C21.869 28.8107 21.7818 28.3745 21.9434 27.99L23.5267 24.2352C23.5493 24.1835 23.5493 24.1253 23.5267 24.0769L21.9434 20.3222C21.7818 19.9377 21.8691 19.4982 22.1663 19.2074C22.4636 18.9134 22.8998 18.8325 23.2843 19.0006L29.6079 21.7666L32.949 23.2271C33.3239 23.3919 33.5565 23.7473 33.5565 24.1544Z" fill="currentColor"/>
</symbol><symbol viewBox="0 0 42 41" fill="none" id="icon-star" xmlns="http://www.w3.org/2000/svg">
<path d="M12.8837 24.9324L7.96125 40.1365L20.845 30.7353L33.7219 40.1365L28.8097 24.9324L41.6866 15.5415H25.7675L20.845 0.344238L15.9225 15.5415H0L12.8837 24.9324Z" fill="currentColor"/>
</symbol></svg>