<svg aria-hidden="true" xmlns="http://www.w3.org/2000/svg" xmlns:xlink="http://www.w3.org/1999/xlink"><symbol viewBox="0 0 24 14" fill="none" id="icon-arrow" xmlns="http://www.w3.org/2000/svg">
<path d="M16 14C16 13.258 16.733 12.15 17.475 11.22C18.429 10.02 19.569 8.973 20.876 8.174C21.856 7.575 23.044 7 24 7M24 7C23.044 7 21.855 6.425 20.876 5.826C19.569 5.026 18.429 3.979 17.475 2.781C16.733 1.85 16 0.740002 16 1.66893e-06M24 7L0 7" stroke="currentColor"/>
</symbol><symbol viewBox="0 0 32 22" fill="none" id="icon-burger" xmlns="http://www.w3.org/2000/svg">
<rect width="7" height="2" fill="currentColor"/>
<rect x="25" y="20" width="7" height="2" fill="currentColor"/>
<rect x="10" width="22" height="2" fill="currentColor"/>
<rect y="20" width="22" height="2" fill="currentColor"/>
<rect y="10" width="32" height="2" fill="currentColor"/>
</symbol><symbol viewBox="0 0 26 26" fill="none" id="icon-close" xmlns="http://www.w3.org/2000/svg">
<rect width="32" height="2" transform="matrix(-0.707107 -0.707107 -0.707107 0.707107 25.0182 23.606)" fill="currentColor"/>
<rect x="0.979126" y="23.6064" width="32" height="2" transform="rotate(-45 0.979126 23.6064)" fill="currentColor"/>
</symbol><symbol viewBox="0 0 37 60" fill="none" id="icon-play" xmlns="http://www.w3.org/2000/svg">
<path d="M36.6719 30.0737L0.548923 59.7528L0.548923 0.394598L36.6719 30.0737Z" fill="currentColor"/>
</symbol></svg>