<svg width="176" height="187" viewBox="0 0 176 187" fill="none" xmlns="http://www.w3.org/2000/svg">
<g clip-path="url(#clip0_1_184)">
<path d="M-128.332 100.121V211.03H-18.333V100.121H-128.332ZM-125.699 102.776H-20.9664C-20.9664 106.1 -20.9664 205.052 -20.9664 208.375H-125.699V102.776ZM31.6202 129.33V156.275H28.9757V132.923L16.1482 155.051L3.45309 133.154V156.275H1.83463V129.331H4.29588L4.65962 129.984L16.7239 150.785L29.2312 129.33H31.6202ZM53.2858 132.685L46.1146 147.154H59.6745L53.2858 132.685ZM66.599 155.763H63.7041L60.3785 148.531H46.8457C45.9153 148.531 45.0743 149.07 44.6499 149.939L41.8955 155.763H40.0409L53.4003 127.848H53.9801L65.3431 152.986L65.1488 153.089L65.3486 152.997L66.599 155.763ZM98.8913 136.846C98.092 135.069 96.8819 133.635 95.2924 132.583C93.703 131.533 91.7743 130.988 89.556 130.963H76.4696V154.639H89.5156C91.7615 154.639 93.6993 154.108 95.2741 153.059C96.8435 152.01 98.0553 150.568 98.8693 148.776C99.6888 146.976 100.105 144.965 100.103 142.802C100.103 140.64 99.6961 138.636 98.8913 136.846ZM102.732 142.802C102.732 145.219 102.2 147.476 101.148 149.512C100.094 151.546 98.5246 153.193 96.4823 154.408C94.4418 155.622 91.998 156.251 89.2205 156.275H73.8425V129.33H89.2205C92.075 129.33 94.55 129.939 96.5758 131.14C98.6071 132.343 100.158 133.992 101.187 136.039C102.211 138.081 102.732 140.356 102.732 142.802ZM120.886 132.685L113.716 147.154H127.275L120.886 132.685ZM134.199 155.763H131.305L127.979 148.531H114.447C113.516 148.531 112.674 149.07 112.251 149.939L109.495 155.763H107.642L121.001 127.848H121.581L132.944 152.986L132.749 153.089L132.949 152.997L134.199 155.763ZM171.225 129.33V156.275H168.582V132.923L155.754 155.051L143.058 133.154V156.275H141.439V129.331H143.901L144.264 129.984L156.33 150.785L168.837 129.33H171.225ZM53.3843 179.771V181.828L53.3218 181.868C52.8337 182.171 51.9822 182.48 50.7184 182.812C49.4743 183.137 48.3787 183.303 47.4626 183.303C45.5992 183.303 43.978 182.923 42.6428 182.173C41.3041 181.42 40.2798 180.391 39.598 179.114C38.9178 177.839 38.573 176.408 38.573 174.861C38.573 173.298 38.9178 171.859 39.598 170.584C40.2807 169.306 41.305 168.275 42.6428 167.515C43.9764 166.757 45.5974 166.372 47.4626 166.372C48.4556 166.372 49.5592 166.534 50.7443 166.852C51.925 167.171 52.783 167.492 53.295 167.807L53.3584 167.846L53.3594 169.905H52.9553L52.917 169.842C52.7846 169.627 52.4674 169.317 51.9723 168.922C51.4736 168.521 50.7953 168.15 49.9561 167.817C49.1187 167.483 48.1525 167.315 47.0846 167.315C45.6645 167.315 44.4312 167.655 43.4203 168.326C42.4068 168.999 41.633 169.916 41.1191 171.054C40.6016 172.197 40.3388 173.477 40.3388 174.86C40.3388 176.242 40.6016 177.514 41.1191 178.643C41.6321 179.765 42.4061 180.675 43.4203 181.348C44.4312 182.02 45.6645 182.36 47.0846 182.36C48.1186 182.36 49.0624 182.221 49.8863 181.947C50.7051 181.673 51.3779 181.339 51.8846 180.956C52.3879 180.575 52.7417 180.199 52.9384 179.839L52.976 179.771H53.3843ZM75.9086 181.503C76.939 180.823 77.7291 179.893 78.2571 178.739C78.7888 177.579 79.0565 176.273 79.0583 174.861C79.0583 173.432 78.7888 172.12 78.2571 170.959C77.7291 169.805 76.939 168.87 75.9086 168.182C74.882 167.497 73.6206 167.148 72.1631 167.148C70.7056 167.148 69.4443 167.497 68.414 168.183C67.3836 168.871 66.5935 169.806 66.0691 170.959C65.5375 172.12 65.268 173.431 65.268 174.861C65.268 176.273 65.5375 177.578 66.0691 178.739C66.5935 179.891 67.3818 180.822 68.414 181.503C69.4443 182.182 70.7056 182.526 72.1631 182.526C73.6206 182.526 74.8801 182.182 75.9086 181.503ZM80.767 174.861C80.767 176.392 80.4296 177.814 79.7605 179.089C79.0931 180.366 78.094 181.4 76.796 182.159C75.4998 182.917 73.9396 183.303 72.1631 183.303C70.3536 183.303 68.7788 182.922 67.4808 182.172C66.1828 181.419 65.1928 180.389 64.5383 179.111C63.8856 177.838 63.5556 176.408 63.5556 174.861C63.5556 173.3 63.8856 171.862 64.5383 170.587C65.1928 169.309 66.1828 168.275 67.4808 167.517C68.777 166.757 70.3536 166.372 72.1613 166.372C73.9708 166.372 75.5456 166.757 76.8418 167.517C78.1398 168.275 79.1298 169.307 79.7843 170.587C80.4351 171.862 80.767 173.299 80.767 174.861ZM104.818 179.771V181.828L104.756 181.868C104.267 182.171 103.416 182.48 102.153 182.812C100.908 183.137 99.8116 183.303 98.895 183.303C97.0323 183.303 95.4116 182.923 94.077 182.173C92.7368 181.42 91.7138 180.391 91.0318 179.114C90.3516 177.839 90.007 176.408 90.007 174.861C90.007 173.298 90.3516 171.859 91.0318 170.584C91.7138 169.306 92.7386 168.275 94.077 167.515C95.4098 166.757 97.0305 166.372 98.895 166.372C99.8886 166.372 100.994 166.534 102.178 166.852C103.359 167.171 104.217 167.492 104.729 167.807L104.793 167.846L104.795 169.905H104.389L104.351 169.842C104.219 169.627 103.902 169.317 103.407 168.922C102.906 168.521 102.228 168.15 101.39 167.817C100.552 167.483 99.5861 167.315 98.5173 167.315C97.0983 167.315 95.8645 167.655 94.8543 168.326C93.8405 168.999 93.0668 169.916 92.5535 171.054C92.0346 172.197 91.7725 173.477 91.7725 174.86C91.7725 176.242 92.0346 177.514 92.5535 178.643C93.065 179.765 93.8405 180.675 94.8543 181.348C95.8645 182.02 97.0983 182.36 98.5173 182.36C99.5513 182.36 100.495 182.221 101.32 181.947C102.14 181.673 102.811 181.339 103.319 180.956C103.821 180.575 104.175 180.199 104.371 179.839L104.41 179.771H104.818ZM127.343 181.503C128.373 180.823 129.163 179.893 129.691 178.739C130.221 177.579 130.491 176.273 130.491 174.861C130.491 173.432 130.223 172.12 129.691 170.959C129.163 169.805 128.373 168.87 127.343 168.182C126.316 167.497 125.055 167.148 123.597 167.148C122.14 167.148 120.88 167.497 119.848 168.183C118.818 168.871 118.028 169.806 117.501 170.959C116.972 172.12 116.702 173.431 116.702 174.861C116.702 176.273 116.972 177.578 117.501 178.739C118.028 179.891 118.816 180.822 119.848 181.503C120.878 182.182 122.142 182.526 123.597 182.526C125.053 182.526 126.314 182.182 127.343 181.503ZM132.201 174.861C132.201 176.392 131.864 177.814 131.195 179.089C130.527 180.366 129.528 181.4 128.23 182.159C126.934 182.917 125.374 183.303 123.597 183.303C121.786 183.303 120.213 182.922 118.915 182.172C117.615 181.419 116.627 180.389 115.971 179.111C115.32 177.838 114.99 176.408 114.99 174.861C114.99 173.3 115.32 171.862 115.971 170.587C116.627 169.309 117.615 168.275 118.913 167.517C120.211 166.757 121.786 166.372 123.597 166.372C125.403 166.372 126.98 166.757 128.276 167.517C129.574 168.275 130.564 169.307 131.218 170.587C131.869 171.862 132.201 173.299 132.201 174.861Z" fill="#4B4036"/>
</g>
<g clip-path="url(#clip1_1_184)">
<path d="M77.9806 52.0899V56.0996L77.8568 56.1761C76.8993 56.7686 75.2253 57.3707 72.7411 58.0158C70.2982 58.6514 68.1466 58.9736 66.3446 58.9736C62.6849 58.9736 59.4986 58.2327 56.8765 56.7712C54.245 55.3027 52.2321 53.2977 50.8943 50.8092C49.5566 48.325 48.8789 45.5361 48.8789 42.5227C48.8789 39.4775 49.5574 36.674 50.8943 34.188C52.2338 31.6994 54.2475 29.6875 56.8756 28.2075C59.4951 26.7293 62.6805 25.9814 66.3446 25.9814C68.2958 25.9814 70.4648 26.2948 72.7937 26.9153C75.1129 27.5359 76.7992 28.1627 77.806 28.7764L77.9298 28.8519L77.9314 32.8643H77.138L77.0615 32.7404C76.8027 32.3218 76.1777 31.7196 75.2077 30.9489C74.2272 30.1693 72.8929 29.4452 71.2434 28.7956C69.5986 28.1461 67.7007 27.8168 65.6028 27.8168C62.813 27.8168 60.3905 28.4805 58.4039 29.7884C56.4112 31.0999 54.891 32.8871 53.8823 35.1017C52.865 37.3323 52.3497 39.827 52.3497 42.5209C52.3497 45.214 52.865 47.6938 53.8814 49.8927C54.8892 52.0802 56.4105 53.8542 58.4039 55.163C60.3905 56.4718 62.8123 57.1364 65.6028 57.1364C67.6349 57.1364 69.488 56.865 71.1083 56.3304C72.7174 55.7977 74.0385 55.1472 75.0348 54.3994C76.0222 53.6567 76.7192 52.9247 77.1046 52.2241L77.1783 52.0899H77.9806ZM117.898 55.4668C119.922 54.1403 121.474 52.3296 122.511 50.0797C123.553 47.8185 124.082 45.2764 124.083 42.5218C124.083 39.7391 123.555 37.1813 122.511 34.9191C121.474 32.6694 119.922 30.8488 117.897 29.5075C115.877 28.1715 113.401 27.4939 110.536 27.4939C107.675 27.4939 105.197 28.1715 103.173 29.5084C101.146 30.8506 99.5945 32.6711 98.5621 34.9191C97.5186 37.1804 96.9891 39.7382 96.9891 42.5218C96.9891 45.2754 97.5177 47.8175 98.5614 50.0797C99.5936 52.3268 101.144 54.1387 103.171 55.4668C105.196 56.7897 107.675 57.4603 110.535 57.4603C113.401 57.4603 115.876 56.7897 117.898 55.4668ZM127.443 42.5218C127.443 45.5046 126.777 48.2784 125.466 50.761C124.151 53.2521 122.191 55.2649 119.641 56.744C117.093 58.223 114.029 58.9726 110.535 58.9726C106.981 58.9726 103.886 58.2311 101.337 56.7693C98.7843 55.3018 96.8399 53.2943 95.5549 50.8048C94.2723 48.3223 93.6237 45.5361 93.6237 42.5227C93.6237 39.4803 94.2723 36.6782 95.5549 34.194C96.8399 31.7038 98.7843 29.6901 101.335 28.2093C103.884 26.7311 106.98 25.9814 110.535 25.9814C114.087 25.9814 117.182 26.7311 119.73 28.2093C122.28 29.6883 124.226 31.7011 125.512 34.194C126.792 36.6775 127.443 39.4794 127.443 42.5218Z" fill="#4B4036"/>
<path d="M77.9806 79.5139V83.5238L77.8568 83.6002C76.8993 84.1927 75.2253 84.7948 72.7411 85.4399C70.2982 86.0756 68.1466 86.3977 66.3446 86.3977C62.6849 86.3977 59.4986 85.6568 56.8765 84.1953C54.245 82.7268 52.2321 80.7219 50.8943 78.2333C49.5566 75.7491 48.8789 72.9603 48.8789 69.9468C48.8789 66.9017 49.5574 64.0979 50.8943 61.6121C52.2338 59.1236 54.2475 57.1117 56.8756 55.6316C59.4951 54.1534 62.6805 53.4047 66.3446 53.4047C68.2958 53.4047 70.4648 53.7189 72.7937 54.3386C75.1129 54.9601 76.7992 55.586 77.806 56.2005L77.9298 56.2758L77.9314 60.2883H77.138L77.0615 60.1645C76.8027 59.7458 76.1777 59.1437 75.2077 58.373C74.2272 57.5935 72.8929 56.8693 71.2434 56.2197C69.5986 55.5702 67.7007 55.2409 65.6028 55.2409C62.813 55.2409 60.3905 55.9046 58.4039 57.2125C56.4112 58.5239 54.891 60.3112 53.8823 62.5259C52.865 64.7563 52.3497 67.2511 52.3497 69.945C52.3497 72.6382 52.865 75.1179 53.8814 77.3168C54.8892 79.5044 56.4105 81.2783 58.4039 82.5871C60.3905 83.8959 62.8123 84.5605 65.6028 84.5605C67.6349 84.5605 69.488 84.2892 71.1083 83.7546C72.7174 83.2218 74.0385 82.5713 75.0348 81.8235C76.0222 81.0808 76.7192 80.3488 77.1046 79.6483L77.1783 79.5139H77.9806ZM117.898 82.8909C119.922 81.5645 121.474 79.7537 122.511 77.5038C123.553 75.2426 124.082 72.7005 124.083 69.9459C124.083 67.1633 123.555 64.6054 122.511 62.3433C121.474 60.0934 119.922 58.2729 117.897 56.9307C115.877 55.5948 113.401 54.9172 110.536 54.9172C107.675 54.9172 105.197 55.5948 103.173 56.9316C101.146 58.2747 99.5945 60.0952 98.5621 62.3433C97.5186 64.6045 96.9891 67.1624 96.9891 69.9459C96.9891 72.6996 97.5177 75.2417 98.5614 77.5038C99.5936 79.7509 101.144 81.5628 103.171 82.8909C105.196 84.2136 107.675 84.8843 110.535 84.8843C113.401 84.8843 115.876 84.2136 117.898 82.8909ZM127.443 69.9459C127.443 72.9287 126.777 75.7026 125.466 78.1849C124.151 80.6762 122.191 82.689 119.641 84.168C117.093 85.6471 114.029 86.3968 110.535 86.3968C106.981 86.3968 103.886 85.655 101.337 84.1935C98.7843 82.7259 96.8399 80.7184 95.5549 78.2289C94.2723 75.7464 93.6237 72.9603 93.6237 69.9468C93.6237 66.9044 94.2723 64.1023 95.5549 61.6182C96.8399 59.128 98.7843 57.1142 101.335 55.6334C103.884 54.1543 106.98 53.4047 110.535 53.4047C114.087 53.4047 117.182 54.1543 119.73 55.6334C122.28 57.1124 124.226 59.1252 125.512 61.6182C126.792 64.1016 127.443 66.9035 127.443 69.9459ZM84.9656 15.1553V98.8213H86.7212V15.1553H84.9656Z" fill="#4B4036"/>
<path d="M33 0V110H142.999V0H33ZM35.6334 2.6334H140.366C140.366 5.92955 140.366 104.07 140.366 107.367H35.6334V2.6334ZM192.952 28.97V55.6936H190.308V32.5331L177.48 54.4799L164.785 32.7619V55.6936H163.167V28.9707H165.628L165.992 29.6179L178.056 50.2482L190.563 28.97H192.952ZM214.618 32.2975L207.447 46.6477H221.007L214.618 32.2975ZM227.931 55.1863H225.036L221.711 48.0134H208.178C207.247 48.0134 206.406 48.5478 205.982 49.4093L203.228 55.1863H201.373L214.732 27.5H215.312L226.675 52.4319L226.481 52.5336L226.681 52.4425L227.931 55.1863ZM260.223 36.4243C259.424 34.6619 258.214 33.2391 256.625 32.1954C255.035 31.154 253.106 30.6143 250.888 30.5894H237.802V54.0714H250.848C253.094 54.0714 255.031 53.5442 256.606 52.5039C258.176 51.4637 259.387 50.0337 260.201 48.2561C261.021 46.4713 261.437 44.4767 261.435 42.3308C261.435 40.1869 261.028 38.1992 260.223 36.4243ZM264.064 42.3308C264.064 44.7286 263.533 46.9665 262.48 48.9863C261.426 51.0033 259.857 52.637 257.814 53.8419C255.774 55.0457 253.33 55.6693 250.553 55.6936H235.175V28.97H250.553C253.407 28.97 255.882 29.5731 257.908 30.7644C259.939 31.9576 261.49 33.5931 262.519 35.6235C263.544 37.6488 264.064 39.9053 264.064 42.3308ZM282.218 32.2975L275.048 46.6477H288.607L282.218 32.2975ZM295.532 55.1863H292.637L289.311 48.0134H275.779C274.848 48.0134 274.006 48.5478 273.583 49.4093L270.827 55.1863H268.974L282.333 27.5H282.913L294.276 52.4319L294.081 52.5336L294.281 52.4425L295.532 55.1863ZM332.558 28.97V55.6936H329.914V32.5331L317.086 54.4799L304.39 32.7619V55.6936H302.771V28.9707H305.234L305.597 29.6179L317.662 50.2482L330.169 28.97H332.558ZM214.716 78.9967V81.037L214.654 81.0764C214.166 81.3776 213.314 81.6842 212.051 82.0131C210.806 82.3356 209.711 82.5 208.795 82.5C206.931 82.5 205.31 82.1229 203.975 81.3793C202.636 80.6322 201.612 79.6116 200.93 78.3451C200.25 77.0807 199.905 75.6615 199.905 74.127C199.905 72.5773 200.25 71.15 200.93 69.8854C201.613 68.618 202.637 67.5948 203.975 66.8413C205.308 66.0898 206.929 65.7081 208.795 65.7081C209.788 65.7081 210.891 65.8682 212.076 66.1835C213.257 66.5 214.115 66.819 214.627 67.131L214.69 67.1693L214.691 69.2115H214.287L214.249 69.1489C214.117 68.9363 213.799 68.6288 213.304 68.2365C212.806 67.8396 212.127 67.4714 211.288 67.1407C210.451 66.8102 209.485 66.643 208.417 66.643C206.997 66.643 205.763 66.9808 204.752 67.6458C203.739 68.3133 202.965 69.2232 202.451 70.3511C201.934 71.4851 201.671 72.7551 201.671 74.1261C201.671 75.497 201.934 76.7589 202.451 77.8787C202.964 78.9914 203.738 79.8939 204.752 80.5607C205.763 81.2275 206.997 81.5652 208.417 81.5652C209.451 81.5652 210.394 81.4268 211.218 81.1551C212.037 80.8834 212.71 80.5526 213.217 80.172C213.72 79.794 214.074 79.4213 214.27 79.0647L214.308 78.9967H214.716ZM237.241 80.7153C238.271 80.0406 239.061 79.1182 239.589 77.9735C240.121 76.8233 240.389 75.5282 240.39 74.127C240.39 72.7104 240.121 71.4083 239.589 70.2572C239.061 69.1132 238.271 68.1855 237.241 67.5028C236.214 66.8235 234.953 66.4776 233.495 66.4776C232.038 66.4776 230.776 66.8235 229.746 67.5037C228.716 68.1864 227.926 69.1141 227.401 70.2572C226.87 71.4083 226.6 72.7094 226.6 74.127C226.6 75.5282 226.87 76.8223 227.401 77.9735C227.926 79.1164 228.714 80.0397 229.746 80.7153C230.776 81.3883 232.038 81.7296 233.495 81.7296C234.953 81.7296 236.212 81.3883 237.241 80.7153ZM242.099 74.127C242.099 75.6453 241.762 77.0565 241.093 78.3202C240.425 79.5874 239.426 80.6126 238.128 81.365C236.832 82.1176 235.272 82.5 233.495 82.5C231.686 82.5 230.111 82.122 228.813 81.3786C227.515 80.6313 226.525 79.6097 225.87 78.3426C225.218 77.0798 224.888 75.6615 224.888 74.127C224.888 72.5789 225.218 71.1526 225.87 69.8881C226.525 68.6208 227.515 67.5957 228.813 66.8432C230.109 66.0898 231.686 65.7081 233.493 65.7081C235.303 65.7081 236.878 66.0898 238.174 66.8432C239.472 67.5948 240.462 68.6189 241.116 69.8881C241.767 71.1526 242.099 72.5782 242.099 74.127ZM266.151 78.9967V81.037L266.088 81.0764C265.599 81.3776 264.748 81.6842 263.485 82.0131C262.24 82.3356 261.144 82.5 260.227 82.5C258.364 82.5 256.744 82.1229 255.409 81.3793C254.069 80.6322 253.046 79.6116 252.364 78.3451C251.684 77.0807 251.339 75.6615 251.339 74.127C251.339 72.5773 251.684 71.15 252.364 69.8854C253.046 68.618 254.071 67.5948 255.409 66.8413C256.742 66.0898 258.363 65.7081 260.227 65.7081C261.221 65.7081 262.326 65.8682 263.511 66.1835C264.691 66.5 265.549 66.819 266.061 67.131L266.125 67.1693L266.127 69.2115H265.722L265.683 69.1489C265.551 68.9363 265.234 68.6288 264.739 68.2365C264.238 67.8396 263.56 67.4714 262.722 67.1407C261.884 66.8102 260.918 66.643 259.849 66.643C258.43 66.643 257.197 66.9808 256.186 67.6458C255.173 68.3133 254.399 69.2232 253.886 70.3511C253.367 71.4851 253.105 72.7551 253.105 74.1261C253.105 75.497 253.367 76.7589 253.886 77.8787C254.397 78.9914 255.173 79.8939 256.186 80.5607C257.197 81.2275 258.43 81.5652 259.849 81.5652C260.883 81.5652 261.828 81.4268 262.653 81.1551C263.472 80.8834 264.143 80.5526 264.651 80.172C265.153 79.794 265.507 79.4213 265.703 79.0647L265.742 78.9967H266.151ZM288.675 80.7153C289.705 80.0406 290.495 79.1182 291.023 77.9735C291.553 76.8233 291.823 75.5282 291.823 74.127C291.823 72.7104 291.555 71.4083 291.023 70.2572C290.495 69.1132 289.705 68.1855 288.675 67.5028C287.648 66.8235 286.387 66.4776 284.929 66.4776C283.472 66.4776 282.212 66.8235 281.18 67.5037C280.15 68.1864 279.36 69.1141 278.834 70.2572C278.304 71.4083 278.034 72.7094 278.034 74.127C278.034 75.5282 278.304 76.8223 278.834 77.9735C279.36 79.1164 280.148 80.0397 281.18 80.7153C282.211 81.3883 283.474 81.7296 284.929 81.7296C286.385 81.7296 287.646 81.3883 288.675 80.7153ZM293.533 74.127C293.533 75.6453 293.196 77.0565 292.527 78.3202C291.859 79.5874 290.86 80.6126 289.562 81.365C288.266 82.1176 286.706 82.5 284.929 82.5C283.118 82.5 281.545 82.122 280.247 81.3786C278.947 80.6313 277.959 79.6097 277.303 78.3426C276.652 77.0798 276.322 75.6615 276.322 74.127C276.322 72.5789 276.652 71.1526 277.303 69.8881C277.959 68.6208 278.947 67.5957 280.245 66.8432C281.543 66.0898 283.118 65.7081 284.929 65.7081C286.735 65.7081 288.312 66.0898 289.608 66.8432C290.906 67.5948 291.896 68.6189 292.551 69.8881C293.201 71.1526 293.533 72.5782 293.533 74.127Z" fill="#4B4036"/>
</g>
<defs>
<clipPath id="clip0_1_184">
<rect width="176" height="61" fill="white" transform="translate(0 126)"/>
</clipPath>
<clipPath id="clip1_1_184">
<rect width="110" height="110" fill="white" transform="translate(33)"/>
</clipPath>
</defs>
</svg>
