<svg width="74" height="20" viewBox="0 0 74 20" fill="none" xmlns="http://www.w3.org/2000/svg">
<path d="M37.3267 11.8124C36.591 11.8124 35.9237 12.096 35.4427 12.5745C34.9689 13.0456 34.6761 13.7054 34.6761 14.4692C34.6761 15.2769 35.0083 15.9726 35.5364 16.4492C36.0084 16.8753 36.6376 17.126 37.3267 17.126C37.9747 17.126 38.5695 16.9039 39.0311 16.5235C39.6095 16.0463 39.978 15.3201 39.978 14.4692C39.978 13.8393 39.7783 13.2799 39.4431 12.8392C38.9585 12.2026 38.1901 11.813 37.3273 11.813L37.3267 11.8124ZM37.3267 16.0791C36.5263 16.0791 35.8365 15.4151 35.8365 14.4692C35.8365 13.5234 36.5269 12.8593 37.3267 12.8593C38.1266 12.8593 38.8169 13.5136 38.8169 14.4692C38.8169 15.4248 38.1266 16.0791 37.3267 16.0791ZM31.5445 11.8124C30.9969 11.8124 30.4869 11.9694 30.064 12.247C29.3585 12.7096 28.8938 13.5069 28.8938 14.4692C28.8938 15.2343 29.1915 15.8984 29.6713 16.3713C30.1517 16.8442 30.8142 17.126 31.5445 17.126C32.1501 17.126 32.7091 16.9325 33.1563 16.5965C33.7873 16.1224 34.1951 15.3652 34.1951 14.4698C34.1951 13.9592 34.0644 13.4954 33.8363 13.1028C33.3765 12.3121 32.521 11.813 31.5445 11.813V11.8124ZM31.5445 16.0791C30.744 16.0791 30.0543 15.4151 30.0543 14.4692C30.0543 13.5234 30.7446 12.8593 31.5445 12.8593C32.3443 12.8593 33.0347 13.5136 33.0347 14.4692C33.0347 15.4248 32.3443 16.0791 31.5445 16.0791ZM24.6653 12.628V13.7553H27.3462C27.2663 14.3895 27.0564 14.8521 26.7357 15.1741C26.3455 15.5667 25.7356 15.9994 24.6653 15.9994C23.0148 15.9994 21.7242 14.661 21.7242 13.0005C21.7242 11.3401 23.0148 10.0016 24.6653 10.0016C25.5559 10.0016 26.2057 10.3541 26.6861 10.8069L27.4763 10.012C26.8059 9.36802 25.9159 8.875 24.6653 8.875C23.8975 8.875 23.1709 9.08864 22.5465 9.45993C21.3328 10.1818 20.5039 11.499 20.5039 13.0005C20.5039 14.5021 21.3854 15.9026 22.662 16.6081C23.2598 16.9386 23.9441 17.1267 24.6647 17.1267C25.885 17.1267 26.8053 16.7243 27.5253 15.9696C28.2652 15.2252 28.4957 14.1783 28.4957 13.3329C28.4957 13.0711 28.4758 12.8295 28.4358 12.6286H24.6647L24.6653 12.628ZM52.7973 13.5033C52.5771 12.9098 51.9073 11.813 50.5369 11.813C49.9519 11.813 49.4085 12.0127 48.9802 12.3657C48.4127 12.8331 48.046 13.5696 48.046 14.4698C48.046 15.9592 49.1665 17.1267 50.667 17.1267C51.8771 17.1267 52.5777 16.3823 52.8675 15.9495L51.9672 15.3457C51.6671 15.7882 51.2569 16.0804 50.667 16.0804C50.0771 16.0804 49.6566 15.8089 49.3868 15.2751L52.9177 13.8058L52.7979 13.5039L52.7973 13.5033ZM49.1962 14.3889C49.1659 13.3627 49.9863 12.8392 50.5762 12.8392C51.0367 12.8392 51.4263 13.0705 51.5564 13.4029L50.3233 13.9178L49.1962 14.3889ZM46.3253 16.9648H47.4858V9.1562H46.3253V16.9648ZM44.4249 12.4065H44.385C44.1248 12.0948 43.6245 11.813 42.9946 11.813C42.3648 11.813 41.7973 12.0626 41.3423 12.4795C40.8135 12.964 40.4638 13.6737 40.4638 14.4802C40.4638 15.4108 40.9363 16.2124 41.6134 16.6823C42.0193 16.9641 42.4991 17.1273 42.994 17.1273C43.6245 17.1273 44.1242 16.8455 44.3844 16.5235H44.4243V16.9057C44.4243 17.9222 43.884 18.4657 43.014 18.4657C42.3037 18.4657 41.8638 17.9526 41.6835 17.5199L40.6731 17.9423C40.9629 18.6465 41.7332 19.512 43.014 19.512C44.3747 19.512 45.5249 18.7067 45.5249 16.7444V11.9743H44.4243V12.4071L44.4249 12.4065ZM43.0945 16.0791C42.294 16.0791 41.6242 15.4047 41.6242 14.479C41.6242 13.5532 42.2946 12.8587 43.0945 12.8587C43.8943 12.8587 44.5048 13.5428 44.5048 14.479C44.5048 15.4151 43.8846 16.0791 43.0945 16.0791ZM58.2323 9.1562H55.4564V16.9648H56.615V14.006H58.2329C58.971 14.006 59.7025 13.6968 60.1908 13.1509C60.5514 12.7473 60.7795 12.2141 60.7795 11.5811C60.7795 10.9481 60.558 10.4301 60.2059 10.0284C59.7176 9.47149 58.9789 9.1556 58.2329 9.1556L58.2323 9.1562ZM58.2625 12.9196H56.615V10.2427H58.2625C59.1289 10.2427 59.6208 10.9639 59.6208 11.5811C59.6208 12.1983 59.1289 12.9196 58.2625 12.9196ZM65.4224 11.7984C64.5839 11.7984 63.715 12.1703 63.3551 12.9938L64.3836 13.426C64.6032 12.9938 65.0128 12.8532 65.4424 12.8532C66.0414 12.8532 66.6507 13.2148 66.6609 13.8575V13.9379C66.451 13.8174 66.0021 13.6366 65.4527 13.6366C64.9759 13.6366 64.4955 13.7498 64.1029 13.9701C63.5825 14.2623 63.2159 14.7419 63.2159 15.3944C63.2159 15.9611 63.4833 16.4182 63.8905 16.7182C64.2342 16.9714 64.677 17.112 65.1435 17.112C65.9222 17.112 66.3518 16.7602 66.6216 16.3488H66.6615V16.9514H67.7802V13.958C67.7802 13.135 67.4178 12.5282 66.8455 12.1703C66.4534 11.9256 65.9633 11.7978 65.4237 11.7978L65.4224 11.7984ZM65.2827 16.0779C64.9033 16.0779 64.3739 15.8868 64.3739 15.4151C64.3739 14.8125 65.0328 14.5812 65.6021 14.5812C66.1116 14.5812 66.3512 14.692 66.6603 14.8423C66.5702 15.5654 65.9512 16.0779 65.2821 16.0779H65.2827ZM71.8533 11.9688L71.3033 13.3706L70.5252 15.3542H70.4853L69.1071 11.9688H67.8589L68.856 14.2513L69.9263 16.7006L68.7477 19.3325H69.9559L72.2157 14.1083L73.1414 11.9682H71.8533V11.9688ZM61.4178 16.9648H62.5764V9.1562H61.4178V16.9648Z" fill="#4B4036"/>
<path d="M11.7202 7.77434L2.49353 2.32802C2.02161 2.04925 1.46377 2.20872 1.17578 2.60009L8.99033 10.5072L11.7208 7.77373L11.7202 7.77434Z" fill="url(#paint0_linear_1_150)"/>
<path d="M0.980469 17.7713C0.980469 17.9916 1.04763 18.1882 1.15895 18.3483L8.98984 10.5087L1.17529 2.60156C1.05428 2.7659 0.980469 2.97041 0.980469 3.2011V17.7713Z" fill="url(#paint1_linear_1_150)"/>
<path d="M11.6761 13.2241L14.8386 11.3574C15.4999 10.9666 15.4999 10.0049 14.8386 9.61416L11.7227 7.77539L8.99219 10.5089L11.6761 13.2241Z" fill="url(#paint2_linear_1_150)"/>
<path d="M1.16016 18.3474C1.44331 18.7552 2.01385 18.9262 2.49485 18.642L11.675 13.2237L8.99104 10.5078L1.16016 18.3474Z" fill="url(#paint3_linear_1_150)"/>
<path d="M21.6051 6.50742C21.2584 6.32043 20.9749 6.03399 20.7906 5.68457C20.5961 5.30357 20.4991 4.87984 20.5085 4.45171C20.4984 4.0026 20.6018 3.55826 20.8091 3.16028C21.0061 2.79503 21.3076 2.49765 21.6747 2.30671C22.0884 2.0967 22.5475 1.99313 23.0108 2.00528C23.4502 1.99365 23.8854 2.0939 24.2759 2.29671C24.6241 2.48671 24.9041 2.77171 25.0825 3.11528C25.2744 3.49671 25.3696 3.91742 25.3597 4.34099C25.3707 4.79478 25.2665 5.24391 25.0569 5.64599C24.8604 6.0107 24.5603 6.30834 24.1948 6.50099C23.7898 6.70814 23.3349 6.81242 22.8751 6.80099C22.4338 6.81376 21.9967 6.71223 21.6051 6.50742ZM23.7798 5.93885C24.0158 5.78528 24.1998 5.56742 24.3071 5.31242C24.428 5.02385 24.4869 4.71385 24.4805 4.40242C24.4877 4.09528 24.4358 3.78956 24.3285 3.50028C24.2313 3.24554 24.0592 3.02655 23.8352 2.87242C23.5748 2.70769 23.2707 2.62624 22.9632 2.63885C22.6573 2.62935 22.3555 2.7122 22.0969 2.87671C21.86 3.03316 21.6741 3.25624 21.5624 3.51814C21.4416 3.79671 21.3833 4.09671 21.389 4.39885C21.3826 4.70599 21.4388 5.01028 21.5525 5.29742C21.6548 5.55171 21.8332 5.77099 22.0649 5.92885C22.3211 6.09003 22.6192 6.17085 22.9213 6.16099C23.224 6.17171 23.5232 6.09457 23.7791 5.93957L23.7798 5.93885ZM27.0611 2.74314H25.5551L25.629 2.06957H29.4064L29.3289 2.74314H27.9004V6.73742H27.0611V2.74314ZM33.9264 6.73671H32.9804L31.5349 4.68385H30.9599V6.73742H30.122V2.06957H30.9606V3.99457H31.3998L32.4069 2.60171C32.5234 2.42457 32.6741 2.27099 32.8511 2.14885C33.0202 2.04885 33.2164 1.99885 33.4147 2.00528C33.5874 2.00242 33.7586 2.03385 33.9185 2.09457L33.7423 2.73028C33.6575 2.69515 33.5668 2.67649 33.4751 2.67528C33.3855 2.67276 33.2972 2.69767 33.2221 2.74671C33.1409 2.80863 33.0705 2.8837 33.0138 2.96885L32.1184 4.19314L33.9264 6.73671ZM34.5681 2.06957H35.8758C36.4912 2.06957 36.9624 2.18956 37.2886 2.43099C37.6141 2.67242 37.7776 3.02028 37.779 3.47457C37.7847 3.75957 37.7079 4.04028 37.5573 4.28599C37.4081 4.51891 37.1951 4.70348 36.9439 4.81742C36.6618 4.94528 36.3534 5.00885 36.0414 5.00314C35.8276 5.00044 35.6145 4.97869 35.4046 4.93814V6.73456H34.5653L34.5681 2.06957ZM36.671 4.15385C36.8558 3.98242 36.9539 3.74099 36.9383 3.49385C36.9383 3.20671 36.8473 2.99814 36.671 2.87242C36.4286 2.73022 36.1495 2.66383 35.8694 2.68171H35.4138V4.33885C35.573 4.36599 35.7336 4.38171 35.8964 4.38742C36.1757 4.40457 36.4522 4.32099 36.671 4.15385ZM39.393 6.50742C39.0458 6.3209 38.7619 6.03436 38.5778 5.68457C38.3833 5.30357 38.2863 4.87984 38.2957 4.45171C38.2858 4.00279 38.3887 3.55861 38.5949 3.16028C38.792 2.79492 39.0939 2.49754 39.4612 2.30671C39.875 2.09681 40.334 1.99325 40.7973 2.00528C41.2362 1.99374 41.6709 2.09399 42.0609 2.29671C42.4092 2.48599 42.6906 2.77099 42.8683 3.11528C43.0609 3.49671 43.1568 3.91671 43.1476 4.34099C43.1584 4.79484 43.054 5.24398 42.8441 5.64599C42.6464 6.01066 42.345 6.30783 41.9785 6.49957C41.5727 6.70671 41.1186 6.81099 40.658 6.79957C40.2185 6.81169 39.7832 6.71115 39.393 6.50742ZM41.5656 5.93885C41.8051 5.78528 41.992 5.56671 42.1 5.31028C42.2194 5.02028 42.2763 4.71028 42.2685 4.39885C42.2738 4.09217 42.2212 3.78726 42.1135 3.50028C42.0163 3.24554 41.8443 3.02655 41.6203 2.87242C41.3599 2.70704 41.0554 2.62555 40.7476 2.63885C40.4423 2.62969 40.1414 2.71253 39.8834 2.87671C39.6469 3.03367 39.4611 3.25659 39.3489 3.51814C39.2281 3.79671 39.167 4.09671 39.1713 4.39885C39.167 4.70599 39.2238 5.01099 39.3397 5.29742C39.4413 5.55171 39.6197 5.77171 39.8528 5.92885C40.1058 6.08956 40.4043 6.17099 40.7078 6.16099C41.0105 6.17171 41.309 6.09314 41.5656 5.93885ZM47.4196 6.73742V4.17028C47.4196 3.84742 47.4316 3.47742 47.4551 3.06171L45.0181 6.73671H44.0821V2.06885H44.8611V4.73457C44.8611 5.02457 44.8518 5.34171 44.8305 5.68528L47.2355 2.06885H48.1992V6.73671H47.4203L47.4196 6.73742ZM45.5263 1.66385C45.3646 1.58531 45.2263 1.46533 45.1254 1.31599C45.0335 1.17815 44.973 1.02154 44.9485 0.857422H45.5526C45.6165 1.20171 45.8283 1.37099 46.1837 1.37099C46.539 1.37099 46.7501 1.19956 46.8183 0.857422H47.4245C47.4004 1.02171 47.3392 1.17885 47.2454 1.31814C47.1459 1.46599 47.0081 1.58599 46.8446 1.66599C46.637 1.75512 46.4136 1.80107 46.1879 1.80107C45.9622 1.80107 45.7388 1.75512 45.5312 1.66599L45.5263 1.66385ZM50.4151 2.74314H48.9148L48.988 2.06957H52.7696L52.6922 2.74314H51.2544V6.73742H50.4151V2.74314ZM53.4754 2.06957H56.3373L56.2641 2.73028H54.314V4.01385H56.1461V4.63456H54.314V6.06742H56.3615L56.2904 6.73885H53.4754V2.06957ZM62.2112 4.43099C62.3847 4.52909 62.5283 4.67279 62.6267 4.84669C62.7251 5.02059 62.7746 5.21813 62.7698 5.41814C62.7748 5.66171 62.7037 5.90171 62.5665 6.10742C62.4201 6.31457 62.214 6.47528 61.9731 6.57028C61.6755 6.68783 61.3575 6.74464 61.0378 6.73742H59.4523V2.06957H60.9682C61.4827 2.06957 61.8679 2.16528 62.1259 2.35671C62.381 2.54242 62.5253 2.83599 62.5118 3.14385C62.5203 3.39599 62.4322 3.64314 62.2645 3.83814C62.0946 4.02671 61.87 4.16314 61.6192 4.22957C61.8288 4.25742 62.03 4.32599 62.2112 4.43099ZM60.2724 3.97742H60.7962C60.9561 3.98099 61.1146 3.94671 61.2574 3.87742C61.3839 3.81742 61.4905 3.72385 61.5645 3.60814C61.6357 3.49737 61.6728 3.36789 61.6711 3.23599C61.676 3.15189 61.6587 3.06797 61.621 2.99272C61.5834 2.91747 61.5266 2.85355 61.4564 2.80742C61.2649 2.70201 61.0476 2.65299 60.8296 2.66599H60.2724V3.97742ZM61.6782 5.93885C61.8445 5.78742 61.9361 5.57599 61.9312 5.35599C61.928 5.24602 61.9014 5.13802 61.8531 5.0393C61.8048 4.94058 61.7359 4.85346 61.6512 4.78385C61.4059 4.63343 61.1206 4.5626 60.8339 4.58099H60.2724V6.14671H60.9028C61.2489 6.14242 61.5069 6.07314 61.6774 5.93957L61.6782 5.93885Z" fill="#4B4036"/>
<defs>
<linearGradient id="paint0_linear_1_150" x1="-11.3259" y1="-8.77888" x2="7.79703" y2="6.83844" gradientUnits="userSpaceOnUse">
<stop stop-color="#32A071"/>
<stop offset="0.07" stop-color="#2DA771"/>
<stop offset="0.48" stop-color="#15CF74"/>
<stop offset="0.8" stop-color="#06E775"/>
<stop offset="1" stop-color="#00F076"/>
</linearGradient>
<linearGradient id="paint1_linear_1_150" x1="14.449" y1="10.3961" x2="0.238698" y2="10.4791" gradientUnits="userSpaceOnUse">
<stop stop-color="#00A1FF"/>
<stop offset="0.26" stop-color="#00BEFF"/>
<stop offset="0.51" stop-color="#00D2FF"/>
<stop offset="0.76" stop-color="#00DFFF"/>
<stop offset="1" stop-color="#00E3FF"/>
</linearGradient>
<linearGradient id="paint2_linear_1_150" x1="16.4419" y1="10.8741" x2="3.61376" y2="9.87387" gradientUnits="userSpaceOnUse">
<stop stop-color="#FFE000"/>
<stop offset="0.41" stop-color="#FFBD00"/>
<stop offset="0.78" stop-color="#FFA500"/>
<stop offset="1" stop-color="#FF9C00"/>
</linearGradient>
<linearGradient id="paint3_linear_1_150" x1="14.7703" y1="8.90277" x2="-10.01" y2="25.2547" gradientUnits="userSpaceOnUse">
<stop stop-color="#FF3A44"/>
<stop offset="1" stop-color="#C31162"/>
</linearGradient>
</defs>
</svg>
