<svg width="95" height="99" viewBox="0 0 95 99" fill="none" xmlns="http://www.w3.org/2000/svg">
<path d="M88.9656 43.6799L89.2633 42.9896C89.4527 42.5468 89.7465 42.1446 90.1079 41.8275L92.4949 39.7334C93.7666 38.6177 94.3252 36.8988 93.9522 35.2475L93.2506 32.1499C93.1443 31.68 93.1443 31.1811 93.2506 30.7113L93.9522 27.6137C94.3252 25.9624 93.7686 24.2434 92.4949 23.1277L90.1079 21.0317C89.7465 20.7146 89.4546 20.3124 89.2633 19.8696L88.0069 16.946C87.3401 15.3953 85.8809 14.3337 84.1994 14.1771L81.0296 13.8813C80.5522 13.8368 80.0826 13.684 79.6689 13.4385L76.9302 11.8123C75.4787 10.9519 73.6773 10.9519 72.2258 11.8123L69.4871 13.4385C69.0754 13.684 68.6038 13.8368 68.1264 13.8813L64.9566 14.1771C63.2751 14.3337 61.8158 15.3953 61.149 16.946L59.8927 19.8696C59.7033 20.3124 59.4095 20.7146 59.0481 21.0317L56.9626 22.8628L46.6281 12.5239H65.2059C65.579 12.5239 65.8824 12.2203 65.8824 11.8471C65.8824 11.474 65.579 11.1704 65.2059 11.1704H16.6738C15.8911 11.1704 15.1547 11.4759 14.6019 12.0289L1.99438 24.6417C0.971938 25.6665 0.844375 27.2598 1.69286 28.4335L42.6118 85.0298C43.1684 85.8013 44.0343 86.2441 44.9871 86.2441C45.9381 86.2441 46.8039 85.8013 47.3625 85.0298L63.1514 63.1976C63.3698 62.894 63.3022 62.4725 63.0006 62.2521C62.6972 62.0336 62.2758 62.1012 62.0555 62.4029L46.2666 84.2351C46.1545 84.3898 46.0192 84.5193 45.8685 84.6218L56.2204 42.9683C56.3113 42.6048 56.089 42.2394 55.7276 42.1485C55.3642 42.0595 54.9989 42.28 54.9081 42.6415L44.9891 82.5509L31.2354 27.1535H55.1304C55.1497 27.3062 55.1729 27.459 55.2077 27.6098L55.9093 30.7074C56.0156 31.1773 56.0156 31.6761 55.9093 32.146L55.2077 35.2436C54.8346 36.8949 55.3913 38.6139 56.665 39.7296L59.052 41.8236C59.4134 42.1407 59.7053 42.5429 59.8966 42.9857L60.1942 43.676L54.7245 54.7768C54.5273 55.177 54.5602 55.6527 54.8115 56.022C55.0627 56.3913 55.4918 56.5982 55.9363 56.5615L61.3191 56.1226C61.4448 56.1129 61.5665 56.1728 61.6361 56.2792L64.5662 60.8173C64.7943 61.1712 65.1885 61.3839 65.608 61.3839C65.6312 61.3839 65.6563 61.3839 65.6795 61.3819C66.124 61.3568 66.5222 61.0919 66.7193 60.6916L71.644 50.693L72.2297 51.0411C72.9545 51.4723 73.7682 51.6869 74.5819 51.6869C75.3956 51.6869 76.2093 51.4723 76.9341 51.0411L77.5197 50.693L82.4444 60.6916C82.6415 61.0919 83.0397 61.3549 83.4842 61.38C83.5074 61.3819 83.5326 61.3819 83.5557 61.3819C83.9732 61.3819 84.3675 61.1692 84.5975 60.8154L87.5276 56.2772C87.5972 56.1709 87.717 56.111 87.8446 56.1206L93.2274 56.5596C93.67 56.5963 94.1029 56.3894 94.3523 56.0201C94.6016 55.6527 94.6364 55.1751 94.4392 54.7748L88.9656 43.6799ZM2.94917 25.595L15.5567 12.9822C15.6185 12.9203 15.6843 12.8661 15.7538 12.8159L28.7305 25.798H2.77909C2.82934 25.7284 2.88539 25.6607 2.94917 25.595ZM44.1058 84.6199C43.955 84.5174 43.8197 84.3878 43.7076 84.2331L2.78682 27.6369C2.67858 27.486 2.59934 27.3217 2.54909 27.1535H29.8361L44.1058 84.6199ZM30.3657 25.5196L17.3716 12.52H43.3578L30.3657 25.5196ZM55.1574 25.7999H31.9989L44.9929 12.8004L56.0117 23.8238C55.573 24.4097 55.2811 25.0864 55.1574 25.7999ZM65.5886 59.9163L62.7668 55.5463C62.4266 55.0204 61.8274 54.7246 61.2032 54.7748L56.0194 55.1983L58.2228 50.7259L58.7678 51.3427C61.609 54.5544 66.2922 54.711 69.3576 52.2631L65.5886 59.9163ZM76.2383 49.879C75.2139 50.4881 73.9402 50.4881 72.9158 49.879L70.177 48.2528C69.5934 47.9067 68.9285 47.6902 68.252 47.6283L65.0822 47.3324C63.8936 47.2222 62.8634 46.472 62.3918 45.3756L61.1355 42.4521C60.8668 41.8256 60.4532 41.2571 59.941 40.8066L57.5541 38.7125C56.6553 37.9236 56.261 36.7093 56.5258 35.5433L57.2274 32.4457C57.3782 31.7786 57.3782 31.0748 57.2274 30.4077L56.5258 27.3101C56.261 26.1441 56.6553 24.9298 57.5541 24.1409L59.941 22.0468C60.4532 21.5963 60.8668 21.0278 61.1355 20.4033L62.3918 17.4797C62.8634 16.3833 63.8936 15.6331 65.0822 15.5229L68.252 15.2271C68.9285 15.1632 69.5934 14.9486 70.177 14.6006L72.9158 12.9744C73.9402 12.3653 75.2139 12.3653 76.2383 12.9744L78.977 14.6006C79.5607 14.9467 80.2256 15.1632 80.902 15.2271L84.0718 15.5229C85.2605 15.6331 86.2906 16.3833 86.7622 17.4797L88.0185 20.4033C88.2872 21.0298 88.7008 21.5982 89.213 22.0468L91.6 24.1429C92.4987 24.9318 92.893 26.1461 92.6282 27.312L91.9266 30.4096C91.7759 31.0767 91.7759 31.7806 91.9266 32.4476L92.6282 35.5453C92.893 36.7112 92.4987 37.9255 91.6 38.7144L89.213 40.8085C88.7008 41.2571 88.2872 41.8275 88.0185 42.454L86.7622 45.3776C86.2906 46.4739 85.2605 47.2242 84.0718 47.3344L80.902 47.6302C80.2256 47.694 79.5607 47.9087 78.977 48.2548L76.2383 49.879ZM87.949 54.7748C87.3247 54.7246 86.7255 55.0185 86.3853 55.5463L83.5635 59.9163L80.5368 53.7732C82.7363 55.3163 85.9137 55.1229 87.8717 52.9089L90.5254 49.9099L93.1307 55.2002L87.949 54.7748Z" fill="#ACA095"/>
<path d="M79.4529 45.2713C87.088 42.5931 91.1073 34.2298 88.4301 26.5915C85.753 18.9532 77.3933 14.9323 69.7582 17.6105C62.1231 20.2888 58.1038 28.652 60.781 36.2904C63.4581 43.9287 71.8178 47.9496 79.4529 45.2713Z" fill="#DBD1C8"/>
</svg>
