<svg width="78" height="55" viewBox="0 0 78 55" fill="none" xmlns="http://www.w3.org/2000/svg">
<path d="M50.6 55C48.6 50.3333 47.6 45.7667 47.6 41.3C47.6 24.7 57.4667 13.2 77.2 6.8L78 8.3L77 9.1C70.1333 14.9 66.7 21.8 66.7 29.8C66.7 35.4667 68.4667 40.4 72 44.6C71.2 44.9333 70.5667 45.1667 70.1 45.3C62.6336 48.0333 56.1336 51.2667 50.6 55ZM40.6196 52C39.4724 47.9333 38.9003 44.2333 38.9003 40.9C38.9003 22.0333 49.9669 8.4 72.1002 0L73.4003 2.7L71.6948 3.3C60.3921 7.83333 52.5669 13.3333 48.2196 19.8C43.8085 26.4667 41.6003 33.2667 41.6003 40.2C41.6003 43.6667 42.2169 48.0667 43.453 53.4L40.6196 52ZM11.5001 55C9.50005 50.4 8.50004 45.8333 8.50004 41.3C8.50004 24.6333 18.3667 13.1333 38.1 6.8L38.9 8.3L37.9 9.1C31.0334 14.8333 27.6 21.7333 27.6 29.8C27.6 35.4667 29.4 40.4 33 44.6C32.1334 44.9333 31.5 45.1667 31.1 45.3C23.5 48.1 16.9667 51.3333 11.5001 55ZM1.60003 52C0.533365 48.0667 0 44.3667 0 40.9C0 22.0333 11 8.4 33 0L34.4 2.7L32.7 3.3C21.5667 7.7 13.8 13.2 9.40002 19.8C5.00002 26.4 2.80003 33.2 2.80003 40.2C2.80003 43.6667 3.36669 48.0667 4.50002 53.4L1.60003 52Z" fill="#4B4036" fill-opacity="0.06"/>
</svg>
